<svg width="20" height="20" viewBox="0 0 20 20" xmlns="http://www.w3.org/2000/svg"><g id="Page-1" fill="none" fill-rule="evenodd"><path d="M18 20H2c-1.105 0-2-.895-2-2V4c0-1.105.895-2 2-2h1v1c0 .552.448 1 1 1h2c.552 0 1-.448 1-1V2h6v1c0 .552.448 1 1 1h2c.552 0 1-.448 1-1V2h1c1.105 0 2 .895 2 2v14c0 1.105-.895 2-2 2zm1-13c0-.552-.448-1-1-1H2c-.552 0-1 .448-1 1v11c0 .552.448 1 1 1h16c.552 0 1-.448 1-1V7zm-3 7h-1c-.552 0-1-.448-1-1v-1c0-.552.448-1 1-1h1c.552 0 1 .448 1 1v1c0 .552-.448 1-1 1zm0-4h-1c-.552 0-1-.448-1-1V8c0-.552.448-1 1-1h1c.552 0 1 .448 1 1v1c0 .552-.448 1-1 1zm-4 8h-1c-.552 0-1-.448-1-1v-1c0-.552.448-1 1-1h1c.552 0 1 .448 1 1v1c0 .552-.448 1-1 1zm0-4h-1c-.552 0-1-.448-1-1v-1c0-.552.448-1 1-1h1c.552 0 1 .448 1 1v1c0 .552-.448 1-1 1zm0-4h-1c-.552 0-1-.448-1-1V8c0-.552.448-1 1-1h1c.552 0 1 .448 1 1v1c0 .552-.448 1-1 1zm-4 8H7c-.552 0-1-.448-1-1v-1c0-.552.448-1 1-1h1c.552 0 1 .448 1 1v1c0 .552-.448 1-1 1zm0-4H7c-.552 0-1-.448-1-1v-1c0-.552.448-1 1-1h1c.552 0 1 .448 1 1v1c0 .552-.448 1-1 1zm-4 4H3c-.552 0-1-.448-1-1v-1c0-.552.448-1 1-1h1c.552 0 1 .448 1 1v1c0 .552-.448 1-1 1zm0-4H3c-.552 0-1-.448-1-1v-1c0-.552.448-1 1-1h1c.552 0 1 .448 1 1v1c0 .552-.448 1-1 1zM15 3c-.552 0-1-.448-1-1V1c0-.552.448-1 1-1s1 .448 1 1v1c0 .552-.448 1-1 1zM5 3c-.552 0-1-.448-1-1V1c0-.552.448-1 1-1s1 .448 1 1v1c0 .552-.448 1-1 1z" id="cal" fill="#959595"/></g></svg>