<svg xmlns="http://www.w3.org/2000/svg" preserveAspectRatio="xMidYMid" width="63.969" height="63.969" viewBox="0 0 63.969 63.969"><defs><style>.cls-1 { fill: #fff; fill-rule: evenodd; }</style></defs><path d="M18.68 2.88c.786-.36 1.58-.68 2.38-.973.11-.04.222-.08.332-.12.81-.285 1.63-.538 2.45-.754.08-.02.16-.04.242-.06.86-.22 1.726-.41 2.594-.555 2.842-.477 5.71-.557 8.53-.27C25.78 8.12 23.092 21.91 29.48 32.976c6.53 11.31 20.264 15.825 32.053 11.16-1.078 2.625-2.488 5.12-4.247 7.4-1.235 1.6-2.63 3.098-4.18 4.464-.112.098-.238.184-.352.28-.672.576-1.358 1.14-2.086 1.663-.86.62-1.758 1.203-2.695 1.744-15.298 8.836-34.86 3.592-43.692-11.712C-4.55 32.67.69 13.102 15.99 4.267c.79-.457 1.596-.868 2.408-1.25.095-.044.19-.092.284-.136zM9.478 44.976c7.18 12.437 23.082 16.698 35.518 9.517 1.368-.79 2.62-1.7 3.785-2.685-9.878-1.004-19.15-6.572-24.495-15.832-5.152-8.927-5.485-19.293-1.857-28.146-1.164.462-2.316.983-3.433 1.627C6.56 16.637 2.298 32.54 9.478 44.975z" class="cls-1"/></svg>