<svg xmlns="http://www.w3.org/2000/svg" preserveAspectRatio="xMidYMid" width="79.969" height="55.969" viewBox="0 0 79.969 55.969"><defs><style>.cls-1 { fill: #fff; fill-rule: evenodd; }</style></defs><path d="M79.954 39.97c0 8.833-7.16 15.993-15.993 15.993H16C7.167 55.963.007 48.803.007 39.97c0-6.07 3.382-11.35 8.365-14.06C8.14 24.628 8 23.314 8 21.966 8 9.83 17.836-.008 29.972-.008c6.305 0 11.973 2.67 15.98 6.922 1.9-.6 3.92-.926 6.017-.926 11.04 0 19.99 8.95 19.99 19.99 0 .052-.006.102-.007.153 4.778 2.767 8 7.922 8 13.84zm-14.617-9.863c.406-1.31.626-2.702.626-4.145 0-7.72-6.258-13.976-13.977-13.976-2.93 0-5.65.906-7.896 2.448C41.392 9.42 36.097 6.01 30.003 6.01c-8.83 0-15.99 7.157-15.99 15.988 0 2.92.795 5.646 2.16 8h-.19c-5.512 0-9.982 4.47-9.982 9.984s4.47 9.983 9.984 9.983h47.96c5.515 0 9.985-4.47 9.985-9.983 0-5.04-3.74-9.196-8.593-9.875z" class="cls-1"/></svg>