<svg xmlns="http://www.w3.org/2000/svg" preserveAspectRatio="xMidYMid" width="80" height="76" viewBox="0 0 80 76"><defs><style>.cls-1 { fill: #fff; fill-rule: evenodd; }</style></defs><path d="M78 43h-6c-1.105 0-2-.895-2-2v-2c0-1.105.895-2 2-2h6c1.104 0 2 .895 2 2v2c0 1.105-.896 2-2 2zM64.75 19.494c-.782.78-2.05.78-2.83 0l-1.414-1.414c-.78-.78-.78-2.048 0-2.83l4.243-4.24c.78-.782 2.046-.782 2.827 0l1.414 1.413c.782.78.782 2.047 0 2.828l-4.24 4.244zM61.577 50.44c-.566.844-1.5 1.56-2.42 1.56h-3.065c-1.312 0-1.655-.876-.75-2.563.045-.082.065-.146.084-.21C57.052 46.53 58 43.38 58 40c0-9.94-8.06-18-18-18-9.08 0-16.57 6.733-17.8 15.475-.057.133-.096.31-.1.558-.02 1.105-.933 1.983-2.037 1.962l-2-.037c-1.085-.02-1.947-.9-1.958-1.98C17.135 25.675 27.43 16.004 40 16.004c13.253 0 23.997 10.744 23.997 23.997 0 3.75-.88 7.285-2.42 10.44zM41 10h-2c-1.105 0-2-.895-2-2V2c0-1.104.895-2 2-2h2c1.105 0 2 .896 2 2v6c0 1.105-.895 2-2 2zm-22.92 9.494c-.78.78-2.048.78-2.83 0l-4.24-4.243c-.782-.78-.782-2.046 0-2.827l1.413-1.414c.78-.782 2.047-.782 2.828 0l4.244 4.24c.78.782.78 2.05 0 2.83l-1.414 1.414zM23.048 46H46c1.105 0 2 .895 2 2v2c0 1.104-.894 2-1.998 2H7.998C6.894 52 6 51.104 6 50v-2c0-1.105.895-2 2-2h15.048zm32.785 12H72c1.105 0 2 .895 2 2v2c0 1.105-.895 2-2 2H2c-1.105 0-2-.895-2-2v-2c0-1.105.895-2 2-2h53.833zM28 70h34c1.105 0 2 .895 2 2v2c0 1.104-.895 2-2 2H28c-1.105 0-2-.896-2-2v-2c0-1.105.895-2 2-2z" class="cls-1"/></svg>