<svg xmlns="http://www.w3.org/2000/svg" preserveAspectRatio="xMidYMid" width="79.969" height="64" viewBox="0 0 79.969 64"><defs><style>.cls-1 { fill: #fff; fill-rule: evenodd; }</style></defs><path d="M79.954 39.97c0 8.833-7.16 15.993-15.993 15.993h-9.768c-1.053-.177-1.136-1.064-.66-1.93.01-.023.01-.037.02-.057.34-.622.7-1.284 1.07-1.96.032-.043.065-.084.097-.14.69-1.247 1.436-1.907 3.218-1.907.018 0 .03-.005.047-.005h5.96c5.514 0 9.983-4.47 9.983-9.983 0-5.04-3.738-9.196-8.59-9.875.405-1.31.625-2.7.625-4.145 0-7.72-6.258-13.976-13.977-13.976-2.93 0-5.65.906-7.896 2.448C41.392 9.42 36.097 6.01 30.003 6.01c-8.83 0-15.99 7.158-15.99 15.988 0 2.92.795 5.646 2.16 8h-.19c-5.512 0-9.982 4.47-9.982 9.984s4.47 9.983 9.984 9.983h4.012c.014 0 .02.004.035.004 1.22 0 1.845.81 1.314 1.81-.012.023-.01.036-.017.055-.485.894-.95 1.75-1.364 2.513-.495.835-1.122 1.584-2.652 1.615H16C7.167 55.963.007 48.803.007 39.97c0-6.07 3.382-11.35 8.365-14.06C8.14 24.628 8 23.314 8 21.966 8 9.83 17.836-.008 29.972-.008c6.304 0 11.973 2.67 15.98 6.92 1.9-.598 3.92-.924 6.017-.924 11.04 0 19.99 8.95 19.99 19.99 0 .052-.006.102-.007.153 4.778 2.767 8 7.922 8 13.84zM31.286 53.696c2.64 1.524 3.544 4.9 2.02 7.54-1.524 2.64-4.9 3.543-7.54 2.02-2.64-1.525-3.543-4.9-2.02-7.54 1.525-2.64 4.9-3.544 7.54-2.02zm.433-2.924c-.72-.414-.964-1.33-.55-2.05.414-.716 5.617-10.29 6.03-11.007.415-.718 1.333-.963 2.05-.55.717.415.963 1.332.55 2.05-.415.717-5.618 10.29-6.032 11.008-.414.718-1.332.963-2.05.55zm14 0c-.72-.414-.965-1.33-.55-2.05.414-.716 5.617-10.29 6.03-11.007.415-.718 1.333-.963 2.05-.55.717.415.963 1.332.55 2.05-.415.717-5.618 10.29-6.032 11.008-.414.718-1.332.963-2.05.55zm-.434 2.924c2.64 1.524 3.544 4.9 2.02 7.54-1.524 2.64-4.9 3.543-7.54 2.02-2.64-1.525-3.543-4.9-2.02-7.54 1.525-2.64 4.9-3.544 7.54-2.02z" class="cls-1"/></svg>