<svg width="16" height="20" viewBox="0 0 16 20" xmlns="http://www.w3.org/2000/svg"><g id="Page-1" fill="none" fill-rule="evenodd"><g id="Portrait-Retina" transform="translate(-583 -1009)" fill="#FFF"><path d="M598.572 1027.978l-1.163-7.784c-.018-.114-.06-.22-.127-.313l-7.164-9.9c-.407-.632-1.07-.98-1.87-.98-1.608 0-3.716 1.43-4.7 3.186-.653 1.17-.728 2.346-.207 3.31.014.025.03.05.047.075l7.176 9.96c.072.1.167.177.276.225l6.815 2.972c.083.035.17.053.257.053.147 0 .292-.05.41-.148.19-.155.285-.405.248-.654zm-5.82-6.636c1.228.66 2.777.613 3.967-.128l.633 4.244c-.73.21-1.313.774-1.574 1.508l-3.98-1.735c.69-.788 1.07-1.8 1.07-2.88 0-.34-.04-.68-.117-1.008zm4-1.042l.067.455c-.025.003-.05.01-.07.026-1.2.86-2.854.9-4.087.11l-4.774-6.69c1.196-.98 2.517-1.422 3.37-1.13.08.028.16-.012.198-.086l5.293 7.316zm-10.162-7.964c1.204-.993 2.536-1.444 3.396-1.15.054.02.108.005.15-.028l1.125 1.554c-.97-.272-2.338.193-3.602 1.236-.998.822-2.02 2.14-2.09 3.49l-1.006-1.398c.044-.035.072-.09.067-.152-.11-1.337.94-2.712 1.96-3.552zm1.66-2.64c.55 0 1.024.206 1.325.686l.3.416c-.962-.208-2.275.26-3.492 1.265-1.024.845-2.075 2.21-2.093 3.6l-.367-.51c-1.217-2.253 2.155-5.458 4.326-5.458zm-2.37 8.175c.016-.028.026-.06.023-.096-.1-1.236.79-2.504 1.728-3.352l4.677 6.55c0 .02.003.038.01.057.145.423.22.868.22 1.32 0 1.072-.407 2.072-1.143 2.82-.016.015-.026.036-.034.057l-.26-.113-5.22-7.243z" id="lj"/></g></g></svg>