<svg width="353" height="72" viewBox="0 0 353 48" xmlns="http://www.w3.org/2000/svg"><g id="Page-1" fill="none" fill-rule="evenodd"><g id="logo" fill="#FFF"><path d="M169.31.374c8.01.49 15.31 2.23 21.202 4.85-.2 1.685 1.07 3.985.92 4.865-.103.6-3.294 5.18-3.886 6.08-2.676 4.06-5.247 8.25-7.935 12.284l-.617-3.764c-1.446-7.74-3.517-16.076-7.935-22.267-.552-.774-1.116-1.485-1.748-2.05zm30.22 10.507c-1.114 1.306-2.273 2.845-3.192 4.048-4.128 5.406-8.708 12.008-12.29 17.98-1.704 2.845-2.267 3.61-3.155 6.967-.255.965-.894 1.746-1.702 2.302 15.194-3.128 25.977-11.016 25.977-20.253 0-4.033-2.057-7.808-5.637-11.043zm-24.728 32.05c-3.242.45-6.642.687-10.145.687-7.017 0-13.617-.955-19.37-2.636.44-.302.89-.588 1.37-.816 2.085-.993 5.752-.416 5.2-3.91-.385-2.43-2.347-4.488-4.4-4.865l2.41-6.194c1.292 2.118 3.023 2.196 5.17 2.822 2.345.684 4.176.556 6.357-.704 3.905-2.257 5.36-5.187 8.256-8.44.99 3.59 3.51 14.485 2.6 17.725-.886 3.156-.668 5.11 2.507 6.315l.045.016zm-38.446-5.486c.417-.948 1.285-.924 1.843-2.165.49-1.09 1.025-2.146 1.537-3.223 3.262-6.872 5.854-13.147 8.348-20.49-1.74.733-3.78 1.7-5.353 2.82-2.373 1.69-3.172 1.927-2.035 4.978 1.05 2.816-1.215 4.808-3.367 3.45-1.273-.805-2.78-3.388-3.674-4.76-5.21-7.98 11.81-13.287 15.972-15.058.684-.292.98-.848 1.165-1.463-15.546 3.032-26.647 11.017-26.647 20.39 0 6.083 4.678 11.58 12.21 15.52zm14.495-14.88c1.194-3.82 2.724-8.034 4.056-11.83.458-1.307.248-2.003 1.58-2.305 1-.228 1.935-.522 2.96-.72 1.854-.358 4.36-1.306 5.676.604 1.507 2.185.753 2.89-.656 5.173-1.68 2.72-4.9 6.386-7.492 7.874-2.025 1.164-4.07.342-6.123 1.203z" id="Fill-1"/><path d="M214.278 12.056h5.474l6.33 16.844 6.316-16.844h5.527L228.418 37.4h-4.66l-9.48-25.344zm26.655 0h5.403V37.4h-5.403V12.057zm10.564 0h5.403v19.888h7.36V37.4h-12.763V12.057zm16.71 0h5.404v19.888h7.36V37.4H268.21V12.057zm25.286 0h4.228L307.94 37.4h-5.443l-2.01-4.98h-9.63l-1.97 4.98h-5.417l10.023-25.344zm2.134 8.303l-2.956 7.472h5.97l-3.013-7.473zm36.664-2.808l-3.594 3.4c-.75-1.31-1.684-2.293-2.793-2.94-1.103-.65-2.264-.974-3.478-.974-1.964 0-3.667.75-5.11 2.26-1.448 1.502-2.172 3.275-2.172 5.325 0 2.175.724 4.013 2.173 5.53 1.442 1.508 3.184 2.266 5.227 2.266 1.11 0 2.173-.285 3.204-.85 1.024-.568 1.846-1.63 2.473-3.184h-5.95v-4.943h11.587v3.282c0 1.687-.574 3.5-1.722 5.437-1.143 1.944-2.656 3.354-4.53 4.25-1.872.897-3.764 1.345-5.676 1.345-3.466 0-6.39-1.266-8.77-3.803-2.382-2.537-3.576-5.674-3.576-9.41 0-3.54 1.226-6.564 3.68-9.075 2.453-2.51 5.403-3.77 8.86-3.77 4.406 0 7.8 1.95 10.167 5.852zm5.64-5.496h14.132v5.02h-8.73v5.102h8.73v4.942h-8.73v5.26h8.73v5.02H337.93V12.057z" id="Fill-2"/><path d="M.826 12.056h8.58c2.31 0 4.17.678 5.586 2.043 1.415 1.356 2.12 3.15 2.12 5.37 0 1.456-.346 2.84-1.037 4.15-.692 1.306-1.736 2.288-3.14 2.934-1.395.64-2.59.975-3.58 1l-3.127.08V37.4H.826V12.057zm5.324 4.586v6.485h2.075c.894 0 1.657-.33 2.297-.982.633-.66.952-1.437.952-2.34 0-1.028-.36-1.825-1.076-2.392-.718-.567-1.736-.85-3.06-.85l-1.188.08zm21.298-4.586h4.228L41.896 37.4H36.45l-2.01-4.98h-9.63l-1.97 4.98h-5.417l10.023-25.344zm2.133 8.303l-2.954 7.472h5.97L29.58 20.36zm16.23-8.304h5.403v19.888h7.36V37.4H45.81V12.057zm18.38 0h6.44l4.713 15.183 4.717-15.184h6.206l3.19 25.345H84.32L82.117 19.57 76.576 37.4h-2.46l-5.664-17.99-2.1 17.99h-5.24l3.08-25.344zm37.912 0h4.228L116.548 37.4h-5.442l-2.01-4.98h-9.63l-1.97 4.98h-5.417L102.1 12.057zm2.133 8.303l-2.955 7.472h5.97l-3.015-7.473z" id="Fill-3"/></g></g></svg>