<svg width="353" height="72" viewBox="0 0 353 72" xmlns="http://www.w3.org/2000/svg"><g id="Page-1" fill="none" fill-rule="evenodd"><g id="logo" fill="#FFF"><path d="M169.31.374c8.01.49 15.31 2.23 21.202 4.85-.2 1.685 1.07 3.985.92 4.865-.103.6-3.294 5.18-3.886 6.08-2.676 4.06-5.247 8.25-7.935 12.284l-.617-3.764c-1.446-7.74-3.517-16.076-7.935-22.267-.552-.774-1.116-1.485-1.748-2.05zm30.22 10.507c-1.114 1.306-2.273 2.845-3.192 4.048-4.128 5.406-8.708 12.008-12.29 17.98-1.704 2.845-2.267 3.61-3.155 6.967-.255.965-.894 1.746-1.702 2.302 15.194-3.128 25.977-11.016 25.977-20.253 0-4.033-2.057-7.808-5.637-11.043zm-24.728 32.05c-3.242.45-6.642.687-10.145.687-7.017 0-13.617-.955-19.37-2.636.44-.302.89-.588 1.37-.816 2.085-.993 5.752-.416 5.2-3.91-.385-2.43-2.347-4.488-4.4-4.865l2.41-6.194c1.292 2.118 3.023 2.196 5.17 2.822 2.345.684 4.176.556 6.357-.704 3.905-2.257 5.36-5.187 8.256-8.44.99 3.59 3.51 14.485 2.6 17.725-.886 3.156-.668 5.11 2.507 6.315l.045.016zm-38.446-5.486c.417-.948 1.285-.924 1.843-2.165.49-1.09 1.025-2.146 1.537-3.223 3.262-6.872 5.854-13.147 8.348-20.49-1.74.733-3.78 1.7-5.353 2.82-2.373 1.69-3.172 1.927-2.035 4.978 1.05 2.816-1.215 4.808-3.367 3.45-1.273-.805-2.78-3.388-3.674-4.76-5.21-7.98 11.81-13.287 15.972-15.058.684-.292.98-.848 1.165-1.463-15.546 3.032-26.647 11.017-26.647 20.39 0 6.083 4.678 11.58 12.21 15.52zm14.495-14.88c1.194-3.82 2.724-8.034 4.056-11.83.458-1.307.248-2.003 1.58-2.305 1-.228 1.935-.522 2.96-.72 1.854-.358 4.36-1.306 5.676.604 1.507 2.185.753 2.89-.656 5.173-1.68 2.72-4.9 6.386-7.492 7.874-2.025 1.164-4.07.342-6.123 1.203z" id="Fill-1"/><path d="M214.278 12.056h5.474l6.33 16.844 6.316-16.844h5.527L228.418 37.4h-4.66l-9.48-25.344zm26.655 0h5.403V37.4h-5.403V12.057zm10.564 0h5.403v19.888h7.36V37.4h-12.763V12.057zm16.71 0h5.404v19.888h7.36V37.4H268.21V12.057zm25.286 0h4.228L307.94 37.4h-5.443l-2.01-4.98h-9.63l-1.97 4.98h-5.417l10.023-25.344zm2.134 8.303l-2.956 7.472h5.97l-3.013-7.473zm36.664-2.808l-3.594 3.4c-.75-1.31-1.684-2.293-2.793-2.94-1.103-.65-2.264-.974-3.478-.974-1.964 0-3.667.75-5.11 2.26-1.448 1.502-2.172 3.275-2.172 5.325 0 2.175.724 4.013 2.173 5.53 1.442 1.508 3.184 2.266 5.227 2.266 1.11 0 2.173-.285 3.204-.85 1.024-.568 1.846-1.63 2.473-3.184h-5.95v-4.943h11.587v3.282c0 1.687-.574 3.5-1.722 5.437-1.143 1.944-2.656 3.354-4.53 4.25-1.872.897-3.764 1.345-5.676 1.345-3.466 0-6.39-1.266-8.77-3.803-2.382-2.537-3.576-5.674-3.576-9.41 0-3.54 1.226-6.564 3.68-9.075 2.453-2.51 5.403-3.77 8.86-3.77 4.406 0 7.8 1.95 10.167 5.852zm5.64-5.496h14.132v5.02h-8.73v5.102h8.73v4.942h-8.73v5.26h8.73v5.02H337.93V12.057z" id="Fill-2"/><path d="M.826 12.056h8.58c2.31 0 4.17.678 5.586 2.043 1.415 1.356 2.12 3.15 2.12 5.37 0 1.456-.346 2.84-1.037 4.15-.692 1.306-1.736 2.288-3.14 2.934-1.395.64-2.59.975-3.58 1l-3.127.08V37.4H.826V12.057zm5.324 4.586v6.485h2.075c.894 0 1.657-.33 2.297-.982.633-.66.952-1.437.952-2.34 0-1.028-.36-1.825-1.076-2.392-.718-.567-1.736-.85-3.06-.85l-1.188.08zm21.298-4.586h4.228L41.896 37.4H36.45l-2.01-4.98h-9.63l-1.97 4.98h-5.417l10.023-25.344zm2.133 8.303l-2.954 7.472h5.97L29.58 20.36zm16.23-8.304h5.403v19.888h7.36V37.4H45.81V12.057zm18.38 0h6.44l4.713 15.183 4.717-15.184h6.206l3.19 25.345H84.32L82.117 19.57 76.576 37.4h-2.46l-5.664-17.99-2.1 17.99h-5.24l3.08-25.344zm37.912 0h4.228L116.548 37.4h-5.442l-2.01-4.98h-9.63l-1.97 4.98h-5.417L102.1 12.057zm2.133 8.303l-2.955 7.472h5.97l-3.015-7.473z" id="Fill-3"/><path d="M.97 51.33h351.244v1H.97v-1z" id="Fill-4"/><path d="M81.472 56.934l2.988 11.47h-1.443l-1.83-7.033-3.097 7.458-3.11-7.478-1.826 7.053h-1.452l2.97-11.47 3.415 8.208 3.385-8.206zm11.435 8.177H86.88c.13.74.428 1.276.893 1.615.467.34.972.51 1.52.51.845 0 1.555-.354 2.125-1.062l1.086.83c-.815 1.064-1.907 1.595-3.277 1.595-1.05 0-1.928-.363-2.638-1.092-.707-.725-1.06-1.628-1.06-2.708 0-1.01.36-1.885 1.074-2.628.716-.74 1.59-1.112 2.623-1.112 1.016 0 1.887.375 2.61 1.127.726.752 1.082 1.73 1.07 2.926zm-5.87-1.203h4.328c-.482-.98-1.19-1.468-2.13-1.468-1.024 0-1.758.488-2.198 1.467zm7.448 4.496V61.27h1.49v1.08c.344-.448.677-.776.99-.982.315-.207.677-.31 1.086-.31.533 0 .953.118 1.254.354.304.236.56.614.77 1.133.372-.52.732-.897 1.08-1.133.347-.236.747-.354 1.205-.354.56 0 1.045.212 1.45.637.407.425.612.926.612 1.51v5.198h-1.49v-4.826c0-.793-.386-1.192-1.157-1.192-.44 0-.812.204-1.118.608-.307.407-.46.91-.46 1.505v3.905h-1.49V63.79c0-.935-.376-1.405-1.13-1.405-.446 0-.826.192-1.135.573-.313.38-.468.852-.468 1.413v4.033h-1.49zm12.057-11.22h1.49v5.48c.633-1.07 1.54-1.605 2.72-1.605.913 0 1.702.37 2.373 1.11.67.737 1.005 1.613 1.005 2.63 0 1.015-.33 1.903-.987 2.66-.66.76-1.428 1.14-2.305 1.14-.566 0-1.1-.153-1.61-.457-.507-.303-.904-.72-1.197-1.24v1.503h-1.488v-11.22zm6.01 7.613c0-.652-.23-1.213-.694-1.676-.465-.466-1.025-.7-1.682-.7-.637 0-1.19.237-1.653.71-.468.468-.702 1.025-.702 1.666 0 .672.235 1.235.703 1.696.464.46 1.04.69 1.72.69.63 0 1.17-.233 1.627-.702.455-.47.683-1.03.683-1.684zm10.478.315H117c.133.74.43 1.276.895 1.615.467.34.973.51 1.522.51.844 0 1.554-.354 2.124-1.062l1.087.83c-.815 1.064-1.907 1.595-3.277 1.595-1.052 0-1.928-.363-2.638-1.092-.707-.725-1.06-1.628-1.06-2.708 0-1.01.36-1.885 1.075-2.628.716-.74 1.59-1.112 2.623-1.112 1.016 0 1.887.375 2.61 1.127.726.752 1.082 1.73 1.07 2.926zm-5.87-1.203h4.328c-.482-.98-1.192-1.468-2.13-1.468-1.025 0-1.758.488-2.2 1.467zm9.235-2.637v1.47c.33-.594.654-1.02.97-1.287.318-.262.73-.395 1.235-.395.143 0 .348.035.616.103l-.438 1.506c-.286-.056-.476-.086-.566-.086-.506 0-.93.177-1.27.534-.343.354-.512.797-.512 1.33v3.96h-1.49V61.27h1.455zm8.62 3.537c0-.98.38-1.846 1.142-2.607.762-.76 1.638-1.142 2.626-1.142 1.016 0 1.904.375 2.663 1.124.76.75 1.14 1.622 1.14 2.625 0 1.006-.375 1.89-1.12 2.658-.744.767-1.603 1.15-2.58 1.15-1.044 0-1.952-.377-2.72-1.135-.77-.758-1.152-1.65-1.152-2.673zm6.133.003c0-.61-.227-1.138-.686-1.59-.456-.45-1-.675-1.627-.675-.645 0-1.2.227-1.668.684-.464.456-.698 1-.698 1.633 0 .605.236 1.133.706 1.587.47.452 1.025.68 1.66.68.615 0 1.156-.234 1.617-.697.465-.466.695-1.006.695-1.623zm7.29-7.54v1.522c-.435-.283-.808-.424-1.12-.424-.264 0-.47.097-.62.295-.15.194-.222.47-.222.82v1.787h1.963v1.38h-1.964v5.753h-1.49V62.65h-1.297v-1.38h1.296v-1.684c0-.81.208-1.46.622-1.944.412-.484.967-.726 1.657-.726.344 0 .733.118 1.174.354zm13.735 1.342l-1.206.977c-.32-.334-.608-.582-.868-.747-.258-.163-.632-.245-1.123-.245-.534 0-.966.12-1.3.366-.332.24-.5.557-.5.94 0 .33.147.626.436.88.293.256.786.534 1.487.84.698.304 1.244.587 1.633.847.39.263.71.553.96.868.252.32.436.652.56 1.003.12.35.183.72.183 1.113 0 .915-.33 1.694-.988 2.337-.66.646-1.457.967-2.395.967-.91 0-1.717-.25-2.418-.755-.698-.504-1.235-1.262-1.612-2.268l1.49-.428c.54 1.24 1.366 1.858 2.48 1.858.54 0 .99-.162 1.345-.486.36-.328.538-.738.538-1.233 0-.298-.093-.596-.28-.894-.187-.3-.418-.548-.696-.74-.277-.194-.718-.42-1.326-.678-.607-.26-1.075-.493-1.405-.705-.33-.21-.614-.458-.857-.75-.24-.29-.414-.578-.528-.867-.11-.286-.167-.596-.167-.923 0-.788.313-1.46.94-2.015.63-.554 1.39-.832 2.285-.832.596 0 1.198.13 1.808.39.61.26 1.117.65 1.523 1.182zm3.645 2.658v1.434c.71-1.097 1.62-1.646 2.728-1.646.91 0 1.694.37 2.352 1.103.657.74.984 1.615.984 2.638 0 1.033-.333 1.924-1.002 2.673-.666.753-1.452 1.128-2.36 1.128-.523 0-1.028-.14-1.51-.416-.48-.274-.88-.676-1.192-1.2v4.766h-1.49V61.27h1.49zm4.522 3.528c0-.63-.234-1.182-.7-1.652-.47-.472-1.02-.707-1.655-.707-.642 0-1.2.232-1.67.7-.47.47-.707 1.02-.707 1.658 0 .652.234 1.22.698 1.7.464.48 1.013.72 1.647.72.655 0 1.218-.237 1.686-.71.466-.477.7-1.046.7-1.71zm10.512.313h-6.03c.132.74.43 1.276.895 1.615.467.34.972.51 1.52.51.845 0 1.555-.354 2.125-1.062l1.087.83c-.817 1.064-1.91 1.595-3.28 1.595-1.05 0-1.927-.363-2.636-1.092-.707-.725-1.06-1.628-1.06-2.708 0-1.01.36-1.885 1.074-2.628.716-.74 1.59-1.112 2.623-1.112 1.018 0 1.888.375 2.613 1.127.724.752 1.08 1.73 1.07 2.926zm-5.87-1.203h4.327c-.483-.98-1.193-1.468-2.13-1.468-1.025 0-1.758.488-2.2 1.467zm7.5-6.725h1.49V64.4l2.888-3.13h1.948l-3.04 3.295 3.075 3.838h-1.852l-3.02-3.77v3.77h-1.488v-11.22zm8.236 2.035h1.49v2.053h1.472v1.4h-1.472v5.733h-1.49V62.67h-1.174v-1.4h1.174v-2.053zm5.924 2.053v1.47c.33-.594.654-1.02.97-1.287.318-.262.73-.395 1.235-.395.143 0 .348.035.616.103l-.438 1.506c-.286-.056-.476-.086-.567-.086-.505 0-.928.177-1.27.534-.342.354-.51.797-.51 1.33v3.96h-1.49V61.27h1.454zm4.38-3.876h1.49v4.213h5.19v-4.213h1.488v11.01h-1.49V63.11h-5.187v5.293h-1.49v-11.01zm9.99 7.413c0-.98.38-1.846 1.143-2.607.762-.76 1.638-1.142 2.626-1.142 1.017 0 1.905.375 2.664 1.124.76.75 1.14 1.622 1.14 2.625 0 1.006-.374 1.89-1.12 2.658-.744.767-1.603 1.15-2.58 1.15-1.044 0-1.953-.377-2.72-1.135-.77-.758-1.15-1.65-1.15-2.673zm6.134.003c0-.61-.228-1.138-.686-1.59-.455-.45-1-.675-1.627-.675-.645 0-1.2.227-1.668.684-.464.456-.698 1-.698 1.633 0 .605.237 1.133.707 1.587.47.452 1.025.68 1.66.68.615 0 1.156-.234 1.617-.697.466-.466.696-1.006.696-1.623zm3.505-5.593h1.49v2.053h1.473v1.4h-1.472v5.733h-1.49V62.67h-1.173v-1.4h1.174v-2.053zm11.323 5.894h-6.03c.133.74.43 1.276.895 1.615.467.34.972.51 1.522.51.843 0 1.553-.354 2.123-1.062l1.087.83c-.815 1.064-1.908 1.595-3.277 1.595-1.052 0-1.928-.363-2.638-1.092-.707-.725-1.06-1.628-1.06-2.708 0-1.01.36-1.885 1.074-2.628.715-.74 1.59-1.112 2.623-1.112 1.016 0 1.886.375 2.61 1.127.725.752 1.082 1.73 1.07 2.926zm-5.87-1.203h4.327c-.48-.98-1.19-1.468-2.13-1.468-1.024 0-1.757.488-2.198 1.467zm7.78-6.725h1.49v11.222h-1.49V57.182zm14.338 1.965l-1.102 1.097c-1.116-1.097-2.407-1.646-3.877-1.646-1.28 0-2.35.416-3.203 1.245-.853.828-1.28 1.864-1.28 3.11 0 1.084.416 2.067 1.242 2.937.826.873 1.968 1.31 3.422 1.31 2.182 0 3.555-.956 4.116-2.868h-2.962v-1.504h4.662c0 .752-.05 1.354-.15 1.802-.1.45-.306.942-.62 1.48-.317.54-.734 1.025-1.257 1.453-.522.427-1.08.734-1.68.92-.595.183-1.307.274-2.137.274-1.884 0-3.388-.596-4.51-1.79-1.124-1.195-1.685-2.558-1.685-4.095 0-1.616.576-2.99 1.724-4.127 1.147-1.136 2.54-1.705 4.174-1.705.972 0 1.857.148 2.66.446.804.295 1.624.85 2.465 1.66zm4.47 2.123v1.47c.33-.594.655-1.02.97-1.287.32-.262.73-.395 1.236-.395.143 0 .347.035.616.103l-.438 1.506c-.287-.056-.476-.086-.567-.086-.505 0-.93.177-1.27.534-.342.354-.512.797-.512 1.33v3.96h-1.49V61.27h1.455zm3.435 3.537c0-.98.38-1.846 1.142-2.607.763-.76 1.64-1.142 2.626-1.142 1.017 0 1.905.375 2.664 1.124.76.75 1.14 1.622 1.14 2.625 0 1.006-.374 1.89-1.12 2.658-.744.767-1.603 1.15-2.58 1.15-1.044 0-1.953-.377-2.72-1.135-.77-.758-1.152-1.65-1.152-2.673zm6.134.003c0-.61-.23-1.138-.687-1.59-.456-.45-1-.675-1.627-.675-.646 0-1.2.227-1.668.684-.464.456-.698 1-.698 1.633 0 .605.236 1.133.707 1.587.47.452 1.025.68 1.66.68.615 0 1.156-.234 1.617-.697.464-.466.695-1.006.695-1.623zm2.75-3.54h1.49v4.018c0 1.24.538 1.86 1.616 1.86.48 0 .858-.167 1.14-.497.276-.332.416-.787.416-1.362V61.27h1.49v4.26c0 .894-.29 1.628-.867 2.204-.576.575-1.315.864-2.212.864-.917 0-1.656-.29-2.222-.864-.566-.576-.85-1.328-.85-2.257V61.27zm9.64 0v1.434c.71-1.097 1.62-1.646 2.728-1.646.91 0 1.694.37 2.35 1.103.658.74.986 1.615.986 2.638 0 1.033-.334 1.924-1.003 2.673-.665.753-1.45 1.128-2.36 1.128-.52 0-1.027-.14-1.51-.416-.478-.274-.878-.676-1.19-1.2v4.766h-1.49V61.27h1.49zm4.52 3.528c0-.63-.233-1.182-.7-1.652-.467-.472-1.02-.707-1.653-.707-.643 0-1.2.232-1.67.7-.47.47-.708 1.02-.708 1.658 0 .652.233 1.22.697 1.7.465.48 1.014.72 1.648.72.654 0 1.218-.237 1.685-.71.467-.477.7-1.046.7-1.71z" id="Fill-5"/></g></g></svg>