<svg width="11" height="18" viewBox="0 0 11 18" xmlns="http://www.w3.org/2000/svg"><g id="Page-1" fill="none" fill-rule="evenodd"><g id="Portrait-Retina" transform="translate(-508 -1010)" fill="#FFF"><path d="M518.393 1019.557c-.254-.514-.93-.943-1.862-.214-1.226.986-3.257.986-3.257.986s-1.988 0-3.257-.987c-.93-.73-1.608-.3-1.862.214-.423.9.042 1.33 1.185 2.057.93.6 2.24.857 3.087.943l-3.342 3.386c-.38.386-.38 1.07 0 1.457l.127.13c.21.213.465.3.72.3.253 0 .507-.087.718-.3l2.623-2.66 2.623 2.66c.38.384 1.058.384 1.44 0l.126-.13c.38-.386.38-1.07 0-1.457l-3.343-3.386c.846-.086 2.115-.3 3.088-.943 1.1-.728 1.608-1.157 1.185-2.057zm-5.12-7.243c1.185 0 2.158.986 2.158 2.186s-.972 2.186-2.157 2.186c-1.184 0-2.157-.986-2.157-2.186s.973-2.186 2.157-2.186zm0 6.686c2.454 0 4.443-2.014 4.443-4.5s-1.99-4.5-4.443-4.5c-2.454 0-4.442 2.014-4.442 4.5s1.99 4.5 4.443 4.5z" id="ok"/></g></g></svg>