<svg xmlns="http://www.w3.org/2000/svg" preserveAspectRatio="xMidYMid" width="81.031" height="68.031" viewBox="0 0 81.031 68.031"><defs><style>.cls-1 { fill: #fff; fill-rule: evenodd; }</style></defs><path d="M79.594 34.46c-.89 2.598-2.17 5.07-3.854 7.29-1.016 1.34-2.17 2.594-3.458 3.735-.067.06-.143.11-.21.168-.583.506-1.184.997-1.82 1.456-.71.51-1.453.993-2.228 1.44-2.238 1.293-4.59 2.202-6.983 2.772.62 1.446.963 3.038.963 4.71 0 6.624-5.37 11.994-11.995 11.994H12.005C5.38 68.026.01 62.656.01 56.032c0-3.595 1.59-6.812 4.096-9.01C4.038 46.366 4 45.703 4 45.03c0-10.492 8.507-18.998 19-18.998 2.127 0 4.166.365 6.076 1.01C28.71 17.71 33.374 8.494 42.024 3.5c.748-.433 1.51-.818 2.28-1.168.608-.275 1.226-.508 1.845-.732.148-.054.295-.122.445-.174C48.137.9 49.707.528 51.285.3c2.752-.4 5.524-.362 8.22.11-7.587 6.067-9.832 16.91-4.827 25.578 5.07 8.782 15.793 12.24 24.916 8.47zM23 32.03c-7.18 0-12.998 5.82-12.998 12.998 0 1.814.374 3.54 1.045 5.108-2.855.46-5.042 2.918-5.042 5.903 0 3.315 2.687 6 6 6h38.01c3.315 0 6-2.685 6-6 0-3.312-2.685-5.998-6-5.998h-2.42c.293-.943.452-1.945.452-2.985 0-5.525-4.48-10.005-10.006-10.005-1.48 0-2.88.33-4.143.907C31.58 34.393 27.567 32.03 23 32.03zm26.484-3.002c-3.927-6.804-4.41-14.64-2.027-21.522-.826.34-1.644.715-2.44 1.174-7.928 4.577-11.5 13.762-9.35 22.22.112.1.225.2.336.304.67-.09 1.346-.153 2.04-.153 8.035 0 14.668 5.928 15.81 13.646.91.31 1.78.706 2.578 1.213 2.932-.206 5.862-1.04 8.578-2.608.87-.503 1.67-1.078 2.433-1.684-7.282-1.302-13.967-5.678-17.956-12.59z" class="cls-1"/></svg>