<svg xmlns="http://www.w3.org/2000/svg" preserveAspectRatio="xMidYMid" width="80" height="68" viewBox="0 0 80 68"><defs><style>.cls-1 { fill: #fff; fill-rule: evenodd; }</style></defs><path d="M78 38h-6c-1.105 0-2-.896-2-2v-2c0-1.105.895-2 2-2h6c1.105 0 2 .895 2 2v2c0 1.104-.895 2-2 2zM66.213 18.03c-.78.78-2.047.78-2.828 0l-1.414-1.415c-.78-.78-.78-2.047 0-2.828l4.243-4.243c.78-.78 2.048-.78 2.83 0l1.413 1.414c.78.78.78 2.048 0 2.83l-4.243 4.24zm-7.335 29.917c1.935 2.13 3.125 4.95 3.125 8.054 0 6.625-5.37 11.995-11.995 11.995H12.005C5.38 67.995.01 62.625.01 56c0-3.594 1.59-6.81 4.096-9.01C4.038 46.336 4 45.673 4 45c0-10.49 8.507-18.997 19-18.997 1.713 0 3.365.247 4.944.672C31.032 20.362 37.5 16.003 45 16.003c10.493 0 19 8.505 19 18.998 0 5.01-1.954 9.552-5.122 12.947zM23 32c-7.18 0-12.998 5.82-12.998 13 0 1.813.374 3.54 1.045 5.107-2.855.462-5.042 2.918-5.042 5.903 0 3.314 2.687 6 6 6h38.01c3.315 0 6-2.686 6-6 0-3.313-2.685-6-6-6h-2.42c.293-.942.452-1.944.452-2.984 0-5.525-4.48-10.005-10.006-10.005-1.48 0-2.88.33-4.143.908C31.58 34.363 27.567 32 23 32zm22-10c-5.062 0-9.437 2.9-11.58 7.124.92.606 1.778 1.295 2.58 2.048.67-.09 1.347-.15 2.042-.15 7.98 0 14.578 5.847 15.788 13.488 2.555-2.373 4.168-5.748 4.168-9.51 0-7.18-5.82-13-12.998-13zm1-12h-2c-1.105 0-2-.895-2-2V2c0-1.105.895-2 2-2h2c1.105 0 2 .895 2 2v6c0 1.105-.895 2-2 2zm-19.385 8.03c-.78.78-2.047.78-2.828 0l-4.243-4.243c-.78-.78-.78-2.048 0-2.83l1.414-1.413c.78-.78 2.048-.78 2.83 0l4.24 4.243c.783.78.782 2.047 0 2.828l-1.413 1.414z" class="cls-1"/></svg>