<svg xmlns="http://www.w3.org/2000/svg" preserveAspectRatio="xMidYMid" width="79.969" height="63.969" viewBox="0 0 79.969 63.969"><defs><style>.cls-1 { fill: #fff; fill-rule: evenodd; }</style></defs><path d="M79.954 39.97c0 8.833-7.16 15.993-15.993 15.993h-8.664c-1.694-.014-1.77-.896-1.288-2.027.364-.856.73-1.722 1.093-2.58.384-.785.933-1.385 2.613-1.385.03 0 .046-.004.073-.005h6.16c5.513 0 9.982-4.47 9.982-9.983 0-5.04-3.738-9.196-8.59-9.875.405-1.31.625-2.7.625-4.145 0-7.72-6.258-13.976-13.977-13.976-2.93 0-5.65.906-7.896 2.448C41.392 9.42 36.097 6.01 30.003 6.01c-8.83 0-15.99 7.157-15.99 15.988 0 2.92.795 5.646 2.16 8h-.19c-5.512 0-9.982 4.47-9.982 9.984s4.47 9.983 9.984 9.983h2.626c.013 0 .018.005.032.005 1.343 0 2.842.78 2 1.967-.023.03-.025.052-.04.08-.603.867-1.174 1.692-1.696 2.45-.026.033-.05.055-.077.093-.642.922-1.247 1.313-2 1.403h-.77c-.21-.02-.428-.048-.665-.09-.19-.036-.324-.012-.427.038-8.35-.533-14.96-7.456-14.96-15.94 0-6.07 3.38-11.35 8.364-14.06C8.14 24.628 8 23.314 8 21.966 8 9.83 17.836-.008 29.972-.008c6.305 0 11.973 2.67 15.98 6.92 1.9-.597 3.92-.924 6.017-.924 11.04 0 19.99 8.95 19.99 19.99 0 .052-.006.102-.007.153 4.778 2.767 8 7.922 8 13.84zm-45.698 1.02c.55-.953 1.77-1.28 2.724-.73.954.552 1.28 1.77.73 2.726-.55.954-7.142 17.073-8.244 18.98-1.1 1.91-3.54 2.563-5.45 1.46-1.907-1.1-2.56-3.54-1.46-5.448 1.103-1.908 11.15-16.033 11.7-16.987zm13.978 0c.55-.953 1.77-1.28 2.725-.73.952.552 1.28 1.77.73 2.726-.552.954-7.144 17.073-8.246 18.98-1.1 1.91-3.54 2.563-5.45 1.46-1.907-1.1-2.56-3.54-1.46-5.448 1.103-1.908 11.15-16.033 11.7-16.987z" class="cls-1"/></svg>