<svg width="13" height="13" viewBox="0 0 13 13" xmlns="http://www.w3.org/2000/svg"><g id="Page-1" fill="none" fill-rule="evenodd"><path d="M12.865 10.896l-2.863-2.9c.466-.814.71-1.72.71-2.63C10.71 2.407 8.305 0 5.354 0 2.405 0 0 2.408 0 5.365c0 2.958 2.404 5.366 5.355 5.366.942 0 1.874-.26 2.705-.755l2.85 2.89c.064.064.155.105.246.105.092 0 .183-.038.247-.105l1.462-1.48c.135-.137.135-.354 0-.49zM5.355 2.09c1.803 0 3.27 1.47 3.27 3.275 0 1.807-1.467 3.276-3.27 3.276S2.087 7.173 2.087 5.366c0-1.806 1.465-3.275 3.268-3.275z" id="search" fill="#000"/></g></svg>