<svg xmlns="http://www.w3.org/2000/svg" preserveAspectRatio="xMidYMid" width="79.969" height="63.969" viewBox="0 0 79.969 63.969"><defs><style>.cls-1 { fill: #fff; fill-rule: evenodd; }</style></defs><path d="M79.954 39.97c0 8.833-7.16 15.993-15.993 15.993h-.65c-.736-.19-1.307-1.436-1.307-2.962 0-1.656.67-3 1.5-3 .035 0 .073-.014.11-.035h.333c5.513 0 9.982-4.47 9.982-9.983 0-5.04-3.738-9.196-8.59-9.875.405-1.31.625-2.7.625-4.145 0-7.72-6.258-13.976-13.977-13.976-2.93 0-5.65.906-7.896 2.448C41.392 9.42 36.097 6.01 30.003 6.01c-8.83 0-15.99 7.157-15.99 15.988 0 2.92.795 5.646 2.16 8h-.19c-5.512 0-9.982 4.47-9.982 9.984 0 5.513 4.47 9.983 9.984 9.983h.626c.013 0 .018.005.032.005 1.343 0 2.842.78 2 1.967-.023.03-.025.052-.04.08-.603.867-1.174 1.692-1.696 2.45-.026.033-.05.054-.077.093-.565.812-1.104 1.205-1.738 1.352C6.685 55.438.007 48.496.007 39.97c0-6.07 3.382-11.35 8.365-14.06C8.14 24.628 8 23.314 8 21.966 8 9.83 17.836-.008 29.972-.008c6.305 0 11.973 2.67 15.98 6.92 1.9-.597 3.92-.924 6.017-.924 11.04 0 19.99 8.95 19.99 19.99 0 .052-.006.102-.007.153 4.778 2.767 8 7.922 8 13.84zm-48.698 1.02c.55-.953 1.77-1.28 2.724-.73.954.552 1.28 1.77.73 2.726-.55.953-7.142 17.073-8.244 18.98-1.1 1.91-3.54 2.563-5.45 1.46-1.907-1.1-2.56-3.54-1.46-5.448 1.103-1.908 11.15-16.033 11.7-16.987zm6.415 13.07c.832-.48 5.022-2.06 7.66-3.074-2.64-1.015-6.826-2.597-7.657-3.077-1.196-.69-1.606-2.22-.916-3.416.69-1.196 2.22-1.605 3.416-.915.83.48 4.3 3.32 6.498 5.1-.44-2.79-1.163-7.212-1.163-8.173 0-1.38 1.12-2.5 2.5-2.5s2.5 1.12 2.5 2.5c0 .96-.726 5.386-1.17 8.18 2.2-1.78 5.67-4.62 6.502-5.1 1.194-.69 2.723-.28 3.414.915.69 1.196.28 2.725-.915 3.415-.834.48-5.037 2.068-7.675 3.08 2.64 1.015 6.83 2.6 7.662 3.08 1.196.69 1.606 2.218.915 3.414-.69 1.197-2.22 1.606-3.415.916-.83-.48-4.3-3.32-6.498-5.1.44 2.79 1.163 7.21 1.163 8.172 0 1.38-1.12 2.5-2.5 2.5s-2.5-1.12-2.5-2.5c0-.96.726-5.385 1.168-8.178-2.197 1.78-5.66 4.612-6.49 5.09-1.195.69-2.724.282-3.414-.914s-.28-2.725.915-3.415z" class="cls-1"/></svg>