<svg xmlns="http://www.w3.org/2000/svg" preserveAspectRatio="xMidYMid" width="79.969" height="63.969" viewBox="0 0 79.969 63.969"><defs><style>.cls-1 { fill: #fff; fill-rule: evenodd; }</style></defs><path d="M79.954 39.993c0 8.833-7.16 15.993-15.993 15.993h-6.533c-.792-.08-1.424-1.38-1.424-2.985 0-1.655.67-3 1.5-3 .02 0 .04-.005.06-.012h6.382c5.514 0 9.984-4.47 9.984-9.982 0-5.04-3.74-9.196-8.593-9.875.406-1.31.626-2.7.626-4.144 0-7.72-6.258-13.977-13.977-13.977-2.93 0-5.65.905-7.896 2.448-2.698-5.015-7.993-8.426-14.087-8.426-8.83 0-15.99 7.16-15.99 15.99 0 2.918.795 5.646 2.16 8h-.19c-5.512 0-9.982 4.47-9.982 9.984 0 5.513 4.47 9.982 9.984 9.982h6.46c.02.007.04.013.06.013.827 0 1.5 1.345 1.5 3 0 1.607-.633 2.906-1.426 2.986H16c-8.833 0-15.993-7.16-15.993-15.993 0-6.07 3.382-11.35 8.365-14.06C8.14 24.653 8 23.338 8 21.99 8 9.852 17.836.014 29.972.014c6.305 0 11.973 2.67 15.98 6.922 1.9-.6 3.92-.925 6.017-.925 11.04 0 19.99 8.95 19.99 19.99 0 .052-.006.1-.007.153 4.778 2.765 8 7.92 8 13.838zM29.67 54.06c.832-.48 5.022-2.06 7.66-3.074-2.64-1.015-6.826-2.597-7.657-3.077-1.196-.69-1.606-2.22-.915-3.416.69-1.196 2.22-1.605 3.415-.915.83.48 4.3 3.32 6.498 5.1-.44-2.79-1.163-7.212-1.163-8.173 0-1.38 1.12-2.5 2.5-2.5s2.5 1.12 2.5 2.5c0 .96-.726 5.386-1.17 8.18 2.2-1.78 5.67-4.62 6.502-5.1 1.194-.69 2.723-.28 3.414.915.69 1.196.28 2.725-.915 3.415-.834.48-5.037 2.068-7.675 3.08 2.64 1.015 6.83 2.6 7.662 3.08 1.196.69 1.606 2.218.915 3.414-.69 1.197-2.22 1.606-3.415.916-.83-.48-4.3-3.32-6.498-5.1.44 2.79 1.163 7.21 1.163 8.172 0 1.38-1.12 2.5-2.5 2.5s-2.5-1.12-2.5-2.5c0-.96.726-5.385 1.168-8.178-2.197 1.78-5.66 4.612-6.49 5.09-1.195.69-2.724.282-3.414-.914s-.28-2.725.915-3.415z" class="cls-1"/></svg>