<svg xmlns="http://www.w3.org/2000/svg" preserveAspectRatio="xMidYMid" width="79.969" height="64" viewBox="0 0 79.969 64"><defs><style>.cls-1 { fill: #fff; fill-rule: evenodd; }</style></defs><path d="M79.954 39.993c0 8.833-7.16 15.993-15.993 15.993h-8.42c-.013-.002-.025-.008-.037-.008-.83 0-1.5-1.343-1.5-3 0-1.62.643-2.933 1.447-2.99h8.495c5.514 0 9.983-4.47 9.983-9.982 0-5.04-3.738-9.196-8.59-9.875.405-1.31.625-2.7.625-4.144 0-7.72-6.258-13.977-13.977-13.977-2.93 0-5.65.905-7.896 2.448-2.698-5.015-7.993-8.426-14.087-8.426-8.83 0-15.99 7.16-15.99 15.99 0 2.918.795 5.646 2.16 8h-.19c-5.512 0-9.982 4.47-9.982 9.984 0 5.513 4.47 9.982 9.984 9.982h8.572c.803.057 1.447 1.37 1.447 2.99 0 1.657-.672 3-1.5 3-.012 0-.03.006-.043.008H16c-8.833 0-15.993-7.16-15.993-15.993 0-6.07 3.382-11.35 8.365-14.06C8.14 24.653 8 23.338 8 21.99 8 9.852 17.836.014 29.972.014c6.305 0 11.973 2.67 15.98 6.922 1.9-.6 3.92-.925 6.017-.925 11.04 0 19.99 8.95 19.99 19.99 0 .052-.006.1-.007.153 4.778 2.766 8 7.92 8 13.838zm-49.76 10.46L41.8 36.43l.033.007c.206-.272.545-.462.95-.462.635 0 1.15.443 1.154.988l.032.008-1.898 9.61c-.06.12-.094.253-.094.392 0 .55.518.996 1.156.996.02 0 .037-.01.057-.01l.027.02h5.625c.02 0 .038-.01.06-.01.638 0 1.155.446 1.155.997 0 .232-.106.435-.26.605l.02.038L38.06 63.54l-.014-.002c-.207.27-.546.46-.95.46-.638 0-1.156-.445-1.156-.995 0-.01.007-.02.007-.03l-.02-.005 1.984-9.718c.037-.096.07-.193.07-.3 0-.55-.516-.995-1.155-.995-.016 0-.03.008-.047.008l-.002-.002-5.46-.028c-.045.004-.085.023-.133.023-.638 0-1.156-.446-1.156-.997 0-.184.074-.347.175-.495l-.008-.01z" class="cls-1"/></svg>