<svg width="19" height="16" viewBox="0 0 19 16" xmlns="http://www.w3.org/2000/svg"><g id="Page-1" fill="none" fill-rule="evenodd"><g id="Portrait-Retina" transform="translate(-694 -1011)" fill="#FFF"><path d="M710.498 1013.447c.787-.47 1.39-1.223 1.668-2.165-.742.424-1.576.753-2.41.942-.695-.753-1.715-1.224-2.78-1.224-2.132 0-3.847 1.74-3.847 3.906 0 .282.046.612.092.894-3.198-.14-5.978-1.694-7.878-4.047-.324.565-.51 1.223-.51 1.976 0 1.364.695 2.54 1.715 3.246-.65 0-1.206-.188-1.716-.47v.047c0 1.882 1.298 3.435 3.06 3.812-.326.094-.65.14-1.02.14-.233 0-.464-.046-.742-.046.51 1.552 1.9 2.68 3.568 2.68-1.298 1.036-2.966 1.648-4.773 1.648-.325 0-.603 0-.927-.047 1.715 1.084 3.707 1.742 5.885 1.742 7.044 0 10.89-5.93 10.89-11.058v-.518c.742-.612 1.39-1.318 1.9-2.07-.695.33-1.436.517-2.177.61" id="tw"/></g></g></svg>