<svg width="13" height="17" viewBox="0 0 13 17" xmlns="http://www.w3.org/2000/svg"><g id="Page-1" fill="none" fill-rule="evenodd"><g id="Portrait-Retina" transform="translate(-722 -1011)" fill="#FFF"><path d="M722 1011h7.235c2.374 0 4.408 1.222 4.408 3.61 0 2.036-.734 2.793-2.147 3.723.113.117.96.35 1.243.525.45.232.734.465 1.017.756.847.873.96 1.688.96 3.026 0 3.144-2.94 4.773-5.82 4.773H722V1011zm3.957 4.307v2.154c1.865 0 3.617.233 3.617-1.804 0-1.92-1.978-1.63-3.617-1.63v1.28zm0 9.02c2.034 0 4.578.35 4.578-2.036.056-2.502-2.6-2.036-4.578-2.036v4.074z" id="vk"/></g></g></svg>