<svg xmlns="http://www.w3.org/2000/svg" preserveAspectRatio="xMidYMid" width="80" height="56" viewBox="0 0 80 56"><defs><style>.cls-1 { fill: #fff; fill-rule: evenodd; }</style></defs><path d="M68 56c-5.767 0-10.58-4.07-11.733-9.492h.004c-.043-.165-.074-.334-.074-.512 0-1.104.896-2 2-2h2.063c.943 0 1.73.657 1.94 1.537l.02-.003C62.9 48.098 65.22 50 68 50c3.314 0 6-2.686 6-6 0-3.176-2.475-5.748-5.597-5.96-.13-.026-.265-.04-.403-.04H2c-1.105 0-2-.895-2-2v-2c0-1.104.895-2 2-2h66c6.627 0 12 5.373 12 12s-5.373 12-12 12zM56 24H2c-1.105 0-2-.895-2-2v-2c0-1.105.895-2 2-2h54c.138 0 .273-.014.403-.04C59.525 17.747 62 15.175 62 12c0-3.314-2.686-6-6-6-2.782 0-5.1 1.902-5.78 4.47l-.02-.004c-.21.88-.997 1.538-1.94 1.538h-2.064c-1.104 0-2-.896-2-2 0-.178.03-.348.075-.512h-.003C45.42 4.07 50.233 0 56 0c6.627 0 12 5.373 12 12s-5.373 12-12 12z" class="cls-1"/></svg>