<?xml version="1.0" encoding="UTF-8" standalone="no"?>
<svg width="20px" height="20px" viewBox="0 0 20 20" version="1.1" xmlns="http://www.w3.org/2000/svg" xmlns:xlink="http://www.w3.org/1999/xlink" xmlns:sketch="http://www.bohemiancoding.com/sketch/ns">
    <!-- Generator: Sketch 3.3.3 (12072) - http://www.bohemiancoding.com/sketch -->
    <title>cal</title>
    <desc>Created with Sketch.</desc>
    <defs></defs>
    <g id="Page-1" stroke="none" stroke-width="1" fill="none" fill-rule="evenodd" sketch:type="MSPage">
        <path d="M18,20 L2,20 C0.895,20 0,19.105 0,18 L0,4 C0,2.895 0.895,2 2,2 L3,2 L3,3 C3,3.552 3.448,4 4,4 L6,4 C6.552,4 7,3.552 7,3 L7,2 L13,2 L13,3 C13,3.552 13.448,4 14,4 L16,4 C16.552,4 17,3.552 17,3 L17,2 L18,2 C19.105,2 20,2.895 20,4 L20,18 C20,19.105 19.105,20 18,20 L18,20 Z M19,7 C19,6.448 18.552,6 18,6 L2,6 C1.448,6 1,6.448 1,7 L1,18 C1,18.552 1.448,19 2,19 L18,19 C18.552,19 19,18.552 19,18 L19,7 L19,7 Z M16,14 L15,14 C14.448,14 14,13.552 14,13 L14,12 C14,11.448 14.448,11 15,11 L16,11 C16.552,11 17,11.448 17,12 L17,13 C17,13.552 16.552,14 16,14 L16,14 Z M16,10 L15,10 C14.448,10 14,9.552 14,9 L14,8 C14,7.448 14.448,7 15,7 L16,7 C16.552,7 17,7.448 17,8 L17,9 C17,9.552 16.552,10 16,10 L16,10 Z M12,18 L11,18 C10.448,18 10,17.552 10,17 L10,16 C10,15.448 10.448,15 11,15 L12,15 C12.552,15 13,15.448 13,16 L13,17 C13,17.552 12.552,18 12,18 L12,18 Z M12,14 L11,14 C10.448,14 10,13.552 10,13 L10,12 C10,11.448 10.448,11 11,11 L12,11 C12.552,11 13,11.448 13,12 L13,13 C13,13.552 12.552,14 12,14 L12,14 Z M12,10 L11,10 C10.448,10 10,9.552 10,9 L10,8 C10,7.448 10.448,7 11,7 L12,7 C12.552,7 13,7.448 13,8 L13,9 C13,9.552 12.552,10 12,10 L12,10 Z M8,18 L7,18 C6.448,18 6,17.552 6,17 L6,16 C6,15.448 6.448,15 7,15 L8,15 C8.552,15 9,15.448 9,16 L9,17 C9,17.552 8.552,18 8,18 L8,18 Z M8,14 L7,14 C6.448,14 6,13.552 6,13 L6,12 C6,11.448 6.448,11 7,11 L8,11 C8.552,11 9,11.448 9,12 L9,13 C9,13.552 8.552,14 8,14 L8,14 Z M4,18 L3,18 C2.448,18 2,17.552 2,17 L2,16 C2,15.448 2.448,15 3,15 L4,15 C4.552,15 5,15.448 5,16 L5,17 C5,17.552 4.552,18 4,18 L4,18 Z M4,14 L3,14 C2.448,14 2,13.552 2,13 L2,12 C2,11.448 2.448,11 3,11 L4,11 C4.552,11 5,11.448 5,12 L5,13 C5,13.552 4.552,14 4,14 L4,14 Z M15,3 C14.448,3 14,2.552 14,2 L14,1 C14,0.448 14.448,0 15,0 C15.552,0 16,0.448 16,1 L16,2 C16,2.552 15.552,3 15,3 L15,3 Z M5,3 C4.448,3 4,2.552 4,2 L4,1 C4,0.448 4.448,0 5,0 C5.552,0 6,0.448 6,1 L6,2 C6,2.552 5.552,3 5,3 L5,3 Z" id="cal" fill="#959595" sketch:type="MSShapeGroup"></path>
    </g>
</svg>