<svg xmlns="http://www.w3.org/2000/svg" xmlns:xlink="http://www.w3.org/1999/xlink" preserveAspectRatio="xMidYMid" width="63.969" height="63.969" viewBox="0 0 63.969 63.969">
  <defs>
    <style>
      .cls-1 {
        fill: #fff;
        fill-rule: evenodd;
      }
    </style>
  </defs>
  <path d="M18.680,2.881 C19.466,2.521 20.261,2.199 21.061,1.907 C21.171,1.867 21.282,1.826 21.392,1.787 C22.203,1.502 23.021,1.249 23.843,1.033 C23.923,1.012 24.003,0.993 24.084,0.972 C24.945,0.752 25.810,0.564 26.678,0.418 L26.678,0.418 C29.520,-0.059 32.387,-0.139 35.207,0.149 C25.780,8.117 23.093,21.910 29.481,32.975 C36.010,44.284 49.744,48.800 61.533,44.134 C60.455,46.760 59.045,49.256 57.286,51.536 L57.286,51.536 C56.051,53.136 54.656,54.633 53.106,55.999 C52.994,56.098 52.868,56.184 52.754,56.281 C52.082,56.856 51.396,57.419 50.668,57.943 C49.807,58.562 48.910,59.146 47.973,59.687 C32.675,68.523 13.114,63.279 4.281,47.975 C-4.551,32.671 0.691,13.102 15.988,4.267 C16.779,3.810 17.584,3.399 18.396,3.018 C18.491,2.973 18.585,2.925 18.680,2.881 ZM9.478,44.975 C16.658,57.412 32.560,61.673 44.996,54.492 C46.364,53.703 47.615,52.791 48.781,51.807 C38.902,50.803 29.629,45.235 24.285,35.975 C19.133,27.048 18.800,16.682 22.428,7.829 C21.264,8.292 20.112,8.813 18.995,9.457 C6.559,16.637 2.298,32.539 9.478,44.975 Z" class="cls-1"/>
</svg>
