<svg xmlns="http://www.w3.org/2000/svg" xmlns:xlink="http://www.w3.org/1999/xlink" preserveAspectRatio="xMidYMid" width="79.969" height="55.969" viewBox="0 0 79.969 55.969">
  <defs>
    <style>
      .cls-1 {
        fill: #fff;
        fill-rule: evenodd;
      }
    </style>
  </defs>
  <path d="M79.954,39.970 C79.954,48.803 72.794,55.963 63.961,55.963 L16.000,55.963 C7.167,55.963 0.007,48.803 0.007,39.970 C0.007,33.899 3.389,28.619 8.372,25.910 C8.139,24.628 7.999,23.314 7.999,21.966 C7.999,9.830 17.837,-0.008 29.973,-0.008 C36.278,-0.008 41.946,2.661 45.953,6.914 C47.852,6.315 49.873,5.988 51.970,5.988 C63.011,5.988 71.961,14.938 71.961,25.979 C71.961,26.030 71.954,26.080 71.953,26.131 C76.731,28.897 79.954,34.052 79.954,39.970 ZM65.337,30.107 C65.743,28.798 65.963,27.405 65.963,25.962 C65.963,18.243 59.705,11.986 51.986,11.986 C49.055,11.986 46.337,12.892 44.090,14.434 C41.392,9.419 36.097,6.009 30.003,6.009 C21.172,6.009 14.013,13.167 14.013,21.998 C14.013,24.917 14.808,27.644 16.174,29.999 L15.984,29.999 C10.471,29.999 6.001,34.469 6.001,39.982 C6.001,45.496 10.471,49.965 15.984,49.965 L63.945,49.965 C69.459,49.965 73.929,45.496 73.929,39.982 C73.929,34.942 70.190,30.786 65.337,30.107 Z" class="cls-1"/>
</svg>
