<?xml version="1.0" encoding="UTF-8" standalone="no"?>
<svg width="9px" height="18px" viewBox="0 0 9 18" version="1.1" xmlns="http://www.w3.org/2000/svg" xmlns:xlink="http://www.w3.org/1999/xlink" xmlns:sketch="http://www.bohemiancoding.com/sketch/ns">
    <!-- Generator: Sketch 3.2.2 (9983) - http://www.bohemiancoding.com/sketch -->
    <title>fb</title>
    <desc>Created with Sketch.</desc>
    <defs></defs>
    <g id="Page-1" stroke="none" stroke-width="1" fill="none" fill-rule="evenodd" sketch:type="MSPage">
        <g id="Portrait-Retina" sketch:type="MSArtboardGroup" transform="translate(-632.000000, -1010.000000)" fill="#FFFFFF">
            <path d="M637.210526,1013.84324 C637.210526,1013.11351 637.826316,1012.87027 638.536842,1012.87027 C639.247368,1012.87027 640.005263,1013.11351 640.005263,1013.11351 L640.478947,1010.34054 C640.478947,1010.34054 639.484211,1010 637.210526,1010 C635.789474,1010 634.984211,1010.53514 634.368421,1011.36216 C633.8,1012.09189 633.8,1013.35676 633.8,1014.13514 L633.8,1015.93514 L632,1015.93514 L632,1018.61081 L633.8,1018.61081 L633.8,1028 L637.210526,1028 L637.210526,1018.61081 L639.910526,1018.61081 L640.1,1015.93514 L637.210526,1015.93514 L637.210526,1013.84324" id="fb" sketch:type="MSShapeGroup"></path>
        </g>
    </g>
</svg>