<svg xmlns="http://www.w3.org/2000/svg" xmlns:xlink="http://www.w3.org/1999/xlink" preserveAspectRatio="xMidYMid" width="80" height="76" viewBox="0 0 80 76">
  <defs>
    <style>
      .cls-1 {
        fill: #fff;
        fill-rule: evenodd;
      }
    </style>
  </defs>
  <path d="M78.000,43.000 L72.000,43.000 C70.895,43.000 70.000,42.105 70.000,41.000 L70.000,39.000 C70.000,37.895 70.895,37.000 72.000,37.000 L78.000,37.000 C79.104,37.000 80.000,37.895 80.000,39.000 L80.000,41.000 C80.000,42.105 79.104,43.000 78.000,43.000 ZM64.749,19.494 C63.968,20.275 62.701,20.275 61.920,19.494 L60.506,18.080 C59.725,17.299 59.725,16.032 60.506,15.251 L64.749,11.009 C65.530,10.228 66.796,10.228 67.577,11.009 L68.991,12.423 C69.772,13.204 69.772,14.470 68.991,15.251 L64.749,19.494 ZM61.578,50.441 C61.012,51.284 60.078,51.999 59.157,52.000 L56.093,52.000 C54.781,51.999 54.438,51.124 55.344,49.437 C55.388,49.355 55.408,49.291 55.427,49.228 C57.052,46.530 57.999,43.380 57.999,40.000 C57.999,30.060 49.940,22.001 40.000,22.001 C30.919,22.001 23.429,28.733 22.199,37.475 C22.143,37.608 22.104,37.785 22.100,38.033 C22.079,39.138 21.167,40.016 20.063,39.995 L18.063,39.958 C16.978,39.938 16.116,39.057 16.105,37.979 C17.134,25.674 27.429,16.003 40.000,16.003 C53.253,16.003 63.997,26.747 63.997,40.000 C63.997,43.750 63.118,47.285 61.578,50.441 ZM41.000,10.000 L39.000,10.000 C37.895,10.000 37.000,9.105 37.000,8.000 L37.000,2.000 C37.000,0.896 37.895,0.000 39.000,0.000 L41.000,0.000 C42.105,0.000 43.000,0.896 43.000,2.000 L43.000,8.000 C43.000,9.105 42.105,10.000 41.000,10.000 ZM18.080,19.494 C17.299,20.275 16.032,20.275 15.251,19.494 L11.009,15.251 C10.228,14.470 10.228,13.204 11.009,12.423 L12.423,11.009 C13.204,10.228 14.470,10.228 15.251,11.009 L19.494,15.251 C20.275,16.032 20.275,17.299 19.494,18.080 L18.080,19.494 ZM23.048,46.000 L46.000,46.000 C47.105,46.000 48.000,46.895 48.000,48.000 L48.000,50.000 C48.000,51.104 47.106,51.999 46.002,52.000 L7.998,52.000 C6.894,51.999 6.000,51.104 6.000,50.000 L6.000,48.000 C6.000,46.895 6.895,46.000 8.000,46.000 L16.795,46.000 L23.048,46.000 ZM55.833,58.000 L72.000,58.000 C73.105,58.000 74.000,58.895 74.000,60.000 L74.000,62.000 C74.000,63.105 73.105,64.000 72.000,64.000 L2.000,64.000 C0.895,64.000 0.000,63.105 0.000,62.000 L0.000,60.000 C0.000,58.895 0.895,58.000 2.000,58.000 L24.167,58.000 L55.833,58.000 ZM28.000,70.000 L62.000,70.000 C63.105,70.000 64.000,70.895 64.000,72.000 L64.000,74.000 C64.000,75.104 63.105,76.000 62.000,76.000 L28.000,76.000 C26.895,76.000 26.000,75.104 26.000,74.000 L26.000,72.000 C26.000,70.895 26.895,70.000 28.000,70.000 Z" class="cls-1"/>
</svg>
