<svg xmlns="http://www.w3.org/2000/svg" xmlns:xlink="http://www.w3.org/1999/xlink" preserveAspectRatio="xMidYMid" width="79.969" height="64" viewBox="0 0 79.969 64">
  <defs>
    <style>
      .cls-1 {
        fill: #fff;
        fill-rule: evenodd;
      }
    </style>
  </defs>
  <path d="M79.954,39.970 C79.954,48.803 72.794,55.963 63.961,55.963 L54.192,55.963 C53.139,55.786 53.056,54.899 53.531,54.032 C53.543,54.010 53.543,53.996 53.551,53.976 C53.891,53.354 54.253,52.692 54.621,52.017 C54.654,51.973 54.687,51.932 54.719,51.875 C55.411,50.629 56.156,49.969 57.938,49.969 C57.956,49.969 57.967,49.965 57.985,49.965 L63.946,49.965 C69.459,49.965 73.928,45.496 73.928,39.982 C73.928,34.942 70.190,30.786 65.337,30.107 C65.743,28.798 65.963,27.406 65.963,25.962 C65.963,18.243 59.705,11.986 51.986,11.986 C49.055,11.986 46.337,12.892 44.090,14.434 C41.392,9.419 36.097,6.009 30.003,6.009 C21.172,6.009 14.013,13.168 14.013,21.998 C14.013,24.917 14.808,27.644 16.174,29.999 L15.984,29.999 C10.471,29.999 6.001,34.469 6.001,39.982 C6.001,45.496 10.471,49.965 15.984,49.965 L19.996,49.965 C20.010,49.965 20.017,49.969 20.031,49.969 C21.250,49.969 21.875,50.781 21.344,51.781 C21.332,51.803 21.334,51.816 21.327,51.835 C20.842,52.729 20.378,53.584 19.963,54.348 C19.468,55.183 18.841,55.932 17.311,55.963 L16.000,55.963 C7.167,55.963 0.007,48.803 0.007,39.970 C0.007,33.899 3.389,28.619 8.372,25.910 C8.139,24.628 7.999,23.314 7.999,21.966 C7.999,9.830 17.837,-0.008 29.973,-0.008 C36.277,-0.008 41.946,2.661 45.953,6.913 C47.852,6.314 49.873,5.988 51.970,5.988 C63.011,5.988 71.961,14.938 71.961,25.979 C71.961,26.030 71.954,26.080 71.953,26.131 C76.731,28.897 79.954,34.052 79.954,39.970 ZM31.286,53.696 C33.926,55.220 34.830,58.595 33.306,61.235 C31.782,63.875 28.407,64.779 25.767,63.255 C23.127,61.731 22.223,58.355 23.747,55.716 C25.271,53.076 28.646,52.172 31.286,53.696 ZM31.719,50.772 C31.001,50.358 30.756,49.441 31.170,48.723 C31.584,48.006 36.787,38.432 37.201,37.715 C37.615,36.997 38.533,36.752 39.250,37.166 C39.967,37.580 40.213,38.497 39.799,39.215 C39.385,39.932 34.182,49.506 33.768,50.223 C33.354,50.941 32.436,51.186 31.719,50.772 ZM45.719,50.772 C45.001,50.358 44.755,49.441 45.170,48.723 C45.584,48.006 50.787,38.432 51.201,37.715 C51.615,36.997 52.533,36.752 53.250,37.166 C53.967,37.580 54.213,38.497 53.799,39.215 C53.385,39.932 48.182,49.506 47.768,50.223 C47.354,50.941 46.436,51.186 45.719,50.772 ZM45.286,53.696 C47.926,55.220 48.830,58.595 47.306,61.235 C45.782,63.875 42.407,64.779 39.767,63.255 C37.127,61.731 36.223,58.355 37.747,55.716 C39.271,53.076 42.646,52.172 45.286,53.696 Z" class="cls-1"/>
</svg>
