<?xml version="1.0" encoding="UTF-8" standalone="no"?>
<svg width="16px" height="20px" viewBox="0 0 16 20" version="1.1" xmlns="http://www.w3.org/2000/svg" xmlns:xlink="http://www.w3.org/1999/xlink" xmlns:sketch="http://www.bohemiancoding.com/sketch/ns">
    <!-- Generator: Sketch 3.2.2 (9983) - http://www.bohemiancoding.com/sketch -->
    <title>lj</title>
    <desc>Created with Sketch.</desc>
    <defs></defs>
    <g id="Page-1" stroke="none" stroke-width="1" fill="none" fill-rule="evenodd" sketch:type="MSPage">
        <g id="Portrait-Retina" sketch:type="MSArtboardGroup" transform="translate(-583.000000, -1009.000000)" fill="#FFFFFF">
            <path d="M598.571891,1027.97802 L597.409154,1020.19363 C597.392312,1020.08 597.348523,1019.97275 597.282628,1019.88132 L590.119049,1009.98 C589.712733,1009.34769 589.049575,1009 588.249365,1009 C586.641575,1009 584.534207,1010.42945 583.55126,1012.18593 C582.896523,1013.3567 582.822417,1014.53165 583.342839,1015.49451 C583.356944,1015.52132 583.373154,1015.54615 583.390417,1015.57121 L590.566417,1025.53121 C590.637575,1025.63033 590.732733,1025.70747 590.842207,1025.75495 L597.656944,1028.72659 C597.740102,1028.76242 597.82726,1028.78022 597.913996,1028.78022 C598.060733,1028.78022 598.205786,1028.73011 598.325154,1028.63231 C598.514417,1028.47692 598.609154,1028.22703 598.571891,1027.97802 L598.571891,1027.97802 Z M592.753365,1021.34176 C593.979891,1022.00088 595.528944,1021.95451 596.719049,1021.21385 L597.353154,1025.4578 C596.623891,1025.66725 596.039891,1026.23231 595.77926,1026.96593 L591.799891,1025.23077 C592.490839,1024.44198 592.868733,1023.42945 592.868733,1022.35143 C592.868733,1022.00967 592.829996,1021.67099 592.753365,1021.34176 L592.753365,1021.34176 Z M596.75126,1020.30022 L596.81926,1020.75451 C596.795049,1020.75846 596.771049,1020.76571 596.750417,1020.78088 C595.550839,1021.63912 593.896312,1021.67956 592.66347,1020.89011 L587.888733,1014.2 C589.085996,1013.2211 590.40747,1012.77846 591.259891,1013.07077 C591.339681,1013.09846 591.421154,1013.05846 591.457575,1012.98374 L596.75126,1020.30022 L596.75126,1020.30022 Z M586.589575,1012.33582 C587.793575,1011.34264 589.125996,1010.89165 589.985786,1011.18637 C590.040102,1011.20527 590.094417,1011.19077 590.136312,1011.15758 L591.260944,1012.71165 C590.288733,1012.44044 588.921996,1012.90462 587.657575,1013.94769 C586.660312,1014.77011 585.639049,1016.08725 585.569365,1017.43868 L584.561575,1016.03956 C584.605786,1016.00484 584.634207,1015.95011 584.629154,1015.88813 C584.520733,1014.55077 585.570839,1013.17604 586.589575,1012.33582 L586.589575,1012.33582 Z M588.249365,1009.69495 C588.800312,1009.69495 589.273786,1009.90154 589.57526,1010.38198 L589.876102,1010.7978 C588.912523,1010.59033 587.600102,1011.05934 586.38326,1012.06286 C585.358839,1012.90769 584.307891,1014.27341 584.289786,1015.66242 L583.922839,1015.15297 C582.705575,1012.9 586.078207,1009.69495 588.249365,1009.69495 L588.249365,1009.69495 Z M585.880733,1017.87077 C585.896102,1017.84154 585.906417,1017.80923 585.90347,1017.77363 C585.80326,1016.5378 586.691891,1015.27033 587.63126,1014.42154 L592.306628,1020.97253 C592.306839,1020.99121 592.310207,1021.00989 592.316523,1021.02857 C592.461996,1021.45341 592.535681,1021.89846 592.535681,1022.35143 C592.535681,1023.42176 592.130417,1024.42176 591.394417,1025.16857 C591.377996,1025.18505 591.368102,1025.20615 591.359681,1025.22725 L591.098839,1025.11363 L585.880733,1017.87077 L585.880733,1017.87077 Z" id="lj" sketch:type="MSShapeGroup"></path>
        </g>
    </g>
</svg>