<?xml version="1.0" encoding="UTF-8" standalone="no"?>
<svg width="353px" height="72px" viewBox="0 0 353 48" version="1.1" xmlns="http://www.w3.org/2000/svg" xmlns:xlink="http://www.w3.org/1999/xlink" xmlns:sketch="http://www.bohemiancoding.com/sketch/ns">
    <!-- Generator: Sketch 3.3.3 (12072) - http://www.bohemiancoding.com/sketch -->
    <title>logo</title>
    <desc>Created with Sketch.</desc>
    <defs></defs>
    <g id="Page-1" stroke="none" stroke-width="1" fill="none" fill-rule="evenodd" sketch:type="MSPage">
        <g id="logo" sketch:type="MSLayerGroup" fill="#FFFFFF">
            <path d="M169.31,0.374 C177.32,0.864 184.621,2.604 190.512,5.223 C190.313,6.909 191.581,9.209 191.431,10.089 C191.329,10.689 188.138,15.27 187.546,16.169 C184.87,20.231 182.299,24.421 179.611,28.454 L178.993,24.69 C177.547,16.951 175.476,8.614 171.058,2.423 C170.506,1.649 169.942,0.938 169.31,0.374 L169.31,0.374 Z M199.53,10.881 C198.416,12.186 197.257,13.725 196.338,14.928 C192.21,20.334 187.63,26.936 184.049,32.909 C182.344,35.753 181.781,36.518 180.893,39.875 C180.638,40.84 179.999,41.621 179.191,42.177 C194.384,39.049 205.167,31.161 205.167,21.924 C205.167,17.891 203.11,14.116 199.53,10.881 L199.53,10.881 Z M174.802,42.931 C171.56,43.379 168.16,43.617 164.657,43.617 C157.64,43.617 151.04,42.662 145.286,40.981 C145.726,40.678 146.178,40.392 146.657,40.164 C148.742,39.171 152.409,39.748 151.857,36.255 C151.472,33.824 149.51,31.766 147.456,31.389 L149.866,25.196 C151.159,27.314 152.89,27.392 155.038,28.018 C157.382,28.702 159.213,28.574 161.394,27.314 C165.299,25.057 166.754,22.127 169.65,18.873 C170.641,22.463 173.16,33.359 172.25,36.599 C171.364,39.756 171.582,41.709 174.757,42.915 L174.802,42.931 L174.802,42.931 Z M136.356,37.444 C136.773,36.496 137.641,36.52 138.199,35.279 C138.691,34.19 139.225,33.134 139.737,32.057 C142.999,25.185 145.591,18.91 148.085,11.567 C146.345,12.3 144.305,13.267 142.732,14.387 C140.359,16.077 139.56,16.314 140.697,19.365 C141.746,22.181 139.482,24.173 137.33,22.814 C136.057,22.01 134.551,19.427 133.656,18.056 C128.446,10.075 145.467,4.768 149.628,2.997 C150.312,2.705 150.607,2.149 150.793,1.534 C135.247,4.566 124.146,12.551 124.146,21.924 C124.146,28.007 128.824,33.504 136.356,37.444 L136.356,37.444 Z M150.851,22.563 C152.044,18.745 153.574,14.53 154.906,10.734 C155.364,9.427 155.154,8.731 156.486,8.429 C157.487,8.202 158.421,7.908 159.445,7.71 C161.3,7.352 163.805,6.404 165.122,8.314 C166.629,10.499 165.875,11.203 164.466,13.487 C162.786,16.208 159.565,19.873 156.974,21.361 C154.949,22.524 152.905,21.702 150.851,22.563 L150.851,22.563 Z" id="Fill-1" sketch:type="MSShapeGroup"></path>
            <path d="M214.278,12.056 L219.752,12.056 L226.081,28.9 L232.398,12.056 L237.925,12.056 L228.418,37.401 L223.759,37.401 L214.278,12.056 L214.278,12.056 Z M240.933,12.056 L246.336,12.056 L246.336,37.401 L240.933,37.401 L240.933,12.056 Z M251.497,12.056 L256.9,12.056 L256.9,31.944 L264.26,31.944 L264.26,37.401 L251.497,37.401 L251.497,12.056 L251.497,12.056 Z M268.208,12.056 L273.611,12.056 L273.611,31.944 L280.971,31.944 L280.971,37.401 L268.208,37.401 L268.208,12.056 L268.208,12.056 Z M293.493,12.056 L297.721,12.056 L307.94,37.401 L302.497,37.401 L300.488,32.419 L290.857,32.419 L288.886,37.401 L283.47,37.401 L293.493,12.056 L293.493,12.056 Z M295.627,20.359 L292.671,27.832 L298.641,27.832 L295.627,20.359 L295.627,20.359 Z M332.291,17.552 L328.696,20.952 C327.946,19.641 327.012,18.659 325.903,18.013 C324.8,17.361 323.639,17.038 322.425,17.038 C320.461,17.038 318.758,17.789 317.316,19.298 C315.867,20.8 315.143,22.573 315.143,24.623 C315.143,26.798 315.867,28.636 317.316,30.152 C318.758,31.661 320.5,32.419 322.543,32.419 C323.652,32.419 324.716,32.135 325.747,31.569 C326.771,31.002 327.593,29.941 328.22,28.386 L322.269,28.386 L322.269,23.443 L333.857,23.443 L333.857,26.725 C333.857,28.412 333.283,30.224 332.135,32.162 C330.992,34.106 329.479,35.516 327.606,36.412 C325.733,37.309 323.841,37.757 321.929,37.757 C318.464,37.757 315.541,36.491 313.16,33.954 C310.778,31.417 309.584,28.28 309.584,24.544 C309.584,21.005 310.81,17.98 313.264,15.469 C315.717,12.959 318.667,11.7 322.125,11.7 C326.53,11.7 329.923,13.65 332.291,17.552 L332.291,17.552 Z M337.929,12.056 L352.062,12.056 L352.062,17.077 L343.332,17.077 L343.332,22.178 L352.062,22.178 L352.062,27.12 L343.332,27.12 L343.332,32.379 L352.062,32.379 L352.062,37.401 L337.929,37.401 L337.929,12.056 L337.929,12.056 Z" id="Fill-2" sketch:type="MSShapeGroup"></path>
            <path d="M0.826,12.056 L9.406,12.056 C11.716,12.056 13.576,12.734 14.992,14.099 C16.407,15.456 17.112,17.249 17.112,19.469 C17.112,20.926 16.766,22.31 16.075,23.621 C15.383,24.926 14.339,25.908 12.936,26.554 C11.54,27.193 10.346,27.529 9.354,27.555 L6.228,27.634 L6.228,37.401 L0.826,37.401 L0.826,12.056 L0.826,12.056 Z M6.15,16.642 L6.15,23.127 L8.225,23.127 C9.119,23.127 9.882,22.797 10.522,22.145 C11.155,21.486 11.474,20.708 11.474,19.805 C11.474,18.777 11.115,17.98 10.398,17.413 C9.68,16.846 8.662,16.563 7.338,16.563 L6.15,16.642 L6.15,16.642 Z M27.448,12.056 L31.676,12.056 L41.895,37.401 L36.452,37.401 L34.443,32.419 L24.812,32.419 L22.841,37.401 L17.425,37.401 L27.448,12.056 L27.448,12.056 Z M29.581,20.359 L26.626,27.832 L32.596,27.832 L29.581,20.359 L29.581,20.359 Z M45.81,12.056 L51.213,12.056 L51.213,31.944 L58.573,31.944 L58.573,37.401 L45.81,37.401 L45.81,12.056 L45.81,12.056 Z M64.191,12.056 L70.631,12.056 L75.343,27.239 L80.06,12.056 L86.266,12.056 L89.456,37.401 L84.321,37.401 L82.116,19.568 L76.575,37.401 L74.116,37.401 L68.452,19.41 L66.351,37.401 L61.111,37.401 L64.191,12.056 L64.191,12.056 Z M102.102,12.056 L106.33,12.056 L116.548,37.401 L111.106,37.401 L109.097,32.419 L99.466,32.419 L97.495,37.401 L92.079,37.401 L102.102,12.056 L102.102,12.056 Z M104.235,20.359 L101.28,27.832 L107.25,27.832 L104.235,20.359 L104.235,20.359 Z" id="Fill-3" sketch:type="MSShapeGroup"></path>
        </g>
    </g>
</svg>
