<?xml version="1.0" encoding="UTF-8" standalone="no"?>
<svg width="353px" height="72px" viewBox="0 0 353 72" version="1.1" xmlns="http://www.w3.org/2000/svg" xmlns:xlink="http://www.w3.org/1999/xlink" xmlns:sketch="http://www.bohemiancoding.com/sketch/ns">
    <!-- Generator: Sketch 3.3.3 (12072) - http://www.bohemiancoding.com/sketch -->
    <title>logo</title>
    <desc>Created with Sketch.</desc>
    <defs></defs>
    <g id="Page-1" stroke="none" stroke-width="1" fill="none" fill-rule="evenodd" sketch:type="MSPage">
        <g id="logo" sketch:type="MSLayerGroup" fill="#FFFFFF">
            <path d="M169.31,0.374 C177.32,0.864 184.621,2.604 190.512,5.223 C190.313,6.909 191.581,9.209 191.431,10.089 C191.329,10.689 188.138,15.27 187.546,16.169 C184.87,20.231 182.299,24.421 179.611,28.454 L178.993,24.69 C177.547,16.951 175.476,8.614 171.058,2.423 C170.506,1.649 169.942,0.938 169.31,0.374 L169.31,0.374 Z M199.53,10.881 C198.416,12.186 197.257,13.725 196.338,14.928 C192.21,20.334 187.63,26.936 184.049,32.909 C182.344,35.753 181.781,36.518 180.893,39.875 C180.638,40.84 179.999,41.621 179.191,42.177 C194.384,39.049 205.167,31.161 205.167,21.924 C205.167,17.891 203.11,14.116 199.53,10.881 L199.53,10.881 Z M174.802,42.931 C171.56,43.379 168.16,43.617 164.657,43.617 C157.64,43.617 151.04,42.662 145.286,40.981 C145.726,40.678 146.178,40.392 146.657,40.164 C148.742,39.171 152.409,39.748 151.857,36.255 C151.472,33.824 149.51,31.766 147.456,31.389 L149.866,25.196 C151.159,27.314 152.89,27.392 155.038,28.018 C157.382,28.702 159.213,28.574 161.394,27.314 C165.299,25.057 166.754,22.127 169.65,18.873 C170.641,22.463 173.16,33.359 172.25,36.599 C171.364,39.756 171.582,41.709 174.757,42.915 L174.802,42.931 L174.802,42.931 Z M136.356,37.444 C136.773,36.496 137.641,36.52 138.199,35.279 C138.691,34.19 139.225,33.134 139.737,32.057 C142.999,25.185 145.591,18.91 148.085,11.567 C146.345,12.3 144.305,13.267 142.732,14.387 C140.359,16.077 139.56,16.314 140.697,19.365 C141.746,22.181 139.482,24.173 137.33,22.814 C136.057,22.01 134.551,19.427 133.656,18.056 C128.446,10.075 145.467,4.768 149.628,2.997 C150.312,2.705 150.607,2.149 150.793,1.534 C135.247,4.566 124.146,12.551 124.146,21.924 C124.146,28.007 128.824,33.504 136.356,37.444 L136.356,37.444 Z M150.851,22.563 C152.044,18.745 153.574,14.53 154.906,10.734 C155.364,9.427 155.154,8.731 156.486,8.429 C157.487,8.202 158.421,7.908 159.445,7.71 C161.3,7.352 163.805,6.404 165.122,8.314 C166.629,10.499 165.875,11.203 164.466,13.487 C162.786,16.208 159.565,19.873 156.974,21.361 C154.949,22.524 152.905,21.702 150.851,22.563 L150.851,22.563 Z" id="Fill-1" sketch:type="MSShapeGroup"></path>
            <path d="M214.278,12.056 L219.752,12.056 L226.081,28.9 L232.398,12.056 L237.925,12.056 L228.418,37.401 L223.759,37.401 L214.278,12.056 L214.278,12.056 Z M240.933,12.056 L246.336,12.056 L246.336,37.401 L240.933,37.401 L240.933,12.056 Z M251.497,12.056 L256.9,12.056 L256.9,31.944 L264.26,31.944 L264.26,37.401 L251.497,37.401 L251.497,12.056 L251.497,12.056 Z M268.208,12.056 L273.611,12.056 L273.611,31.944 L280.971,31.944 L280.971,37.401 L268.208,37.401 L268.208,12.056 L268.208,12.056 Z M293.493,12.056 L297.721,12.056 L307.94,37.401 L302.497,37.401 L300.488,32.419 L290.857,32.419 L288.886,37.401 L283.47,37.401 L293.493,12.056 L293.493,12.056 Z M295.627,20.359 L292.671,27.832 L298.641,27.832 L295.627,20.359 L295.627,20.359 Z M332.291,17.552 L328.696,20.952 C327.946,19.641 327.012,18.659 325.903,18.013 C324.8,17.361 323.639,17.038 322.425,17.038 C320.461,17.038 318.758,17.789 317.316,19.298 C315.867,20.8 315.143,22.573 315.143,24.623 C315.143,26.798 315.867,28.636 317.316,30.152 C318.758,31.661 320.5,32.419 322.543,32.419 C323.652,32.419 324.716,32.135 325.747,31.569 C326.771,31.002 327.593,29.941 328.22,28.386 L322.269,28.386 L322.269,23.443 L333.857,23.443 L333.857,26.725 C333.857,28.412 333.283,30.224 332.135,32.162 C330.992,34.106 329.479,35.516 327.606,36.412 C325.733,37.309 323.841,37.757 321.929,37.757 C318.464,37.757 315.541,36.491 313.16,33.954 C310.778,31.417 309.584,28.28 309.584,24.544 C309.584,21.005 310.81,17.98 313.264,15.469 C315.717,12.959 318.667,11.7 322.125,11.7 C326.53,11.7 329.923,13.65 332.291,17.552 L332.291,17.552 Z M337.929,12.056 L352.062,12.056 L352.062,17.077 L343.332,17.077 L343.332,22.178 L352.062,22.178 L352.062,27.12 L343.332,27.12 L343.332,32.379 L352.062,32.379 L352.062,37.401 L337.929,37.401 L337.929,12.056 L337.929,12.056 Z" id="Fill-2" sketch:type="MSShapeGroup"></path>
            <path d="M0.826,12.056 L9.406,12.056 C11.716,12.056 13.576,12.734 14.992,14.099 C16.407,15.456 17.112,17.249 17.112,19.469 C17.112,20.926 16.766,22.31 16.075,23.621 C15.383,24.926 14.339,25.908 12.936,26.554 C11.54,27.193 10.346,27.529 9.354,27.555 L6.228,27.634 L6.228,37.401 L0.826,37.401 L0.826,12.056 L0.826,12.056 Z M6.15,16.642 L6.15,23.127 L8.225,23.127 C9.119,23.127 9.882,22.797 10.522,22.145 C11.155,21.486 11.474,20.708 11.474,19.805 C11.474,18.777 11.115,17.98 10.398,17.413 C9.68,16.846 8.662,16.563 7.338,16.563 L6.15,16.642 L6.15,16.642 Z M27.448,12.056 L31.676,12.056 L41.895,37.401 L36.452,37.401 L34.443,32.419 L24.812,32.419 L22.841,37.401 L17.425,37.401 L27.448,12.056 L27.448,12.056 Z M29.581,20.359 L26.626,27.832 L32.596,27.832 L29.581,20.359 L29.581,20.359 Z M45.81,12.056 L51.213,12.056 L51.213,31.944 L58.573,31.944 L58.573,37.401 L45.81,37.401 L45.81,12.056 L45.81,12.056 Z M64.191,12.056 L70.631,12.056 L75.343,27.239 L80.06,12.056 L86.266,12.056 L89.456,37.401 L84.321,37.401 L82.116,19.568 L76.575,37.401 L74.116,37.401 L68.452,19.41 L66.351,37.401 L61.111,37.401 L64.191,12.056 L64.191,12.056 Z M102.102,12.056 L106.33,12.056 L116.548,37.401 L111.106,37.401 L109.097,32.419 L99.466,32.419 L97.495,37.401 L92.079,37.401 L102.102,12.056 L102.102,12.056 Z M104.235,20.359 L101.28,27.832 L107.25,27.832 L104.235,20.359 L104.235,20.359 Z" id="Fill-3" sketch:type="MSShapeGroup"></path>
            <path d="M0.969,51.331 L352.214,51.331 L352.214,52.331 L0.969,52.331 L0.969,51.331 Z" id="Fill-4" sketch:type="MSShapeGroup"></path>
            <path d="M81.472,56.934 L84.46,68.403 L83.017,68.403 L81.186,61.371 L78.09,68.828 L74.979,61.35 L73.154,68.403 L71.702,68.403 L74.673,56.934 L78.087,65.141 L81.472,56.934 L81.472,56.934 Z M92.907,65.111 L86.879,65.111 C87.01,65.849 87.308,66.386 87.773,66.725 C88.24,67.064 88.745,67.235 89.294,67.235 C90.138,67.235 90.848,66.881 91.418,66.173 L92.504,67.002 C91.689,68.067 90.597,68.598 89.227,68.598 C88.176,68.598 87.299,68.235 86.589,67.506 C85.883,66.781 85.53,65.878 85.53,64.798 C85.53,63.787 85.889,62.913 86.604,62.17 C87.32,61.43 88.193,61.058 89.227,61.058 C90.243,61.058 91.114,61.433 91.838,62.185 C92.563,62.937 92.919,63.914 92.907,65.111 L92.907,65.111 Z M87.037,63.907 L91.365,63.907 C90.883,62.928 90.174,62.439 89.236,62.439 C88.211,62.439 87.477,62.928 87.037,63.907 L87.037,63.907 Z M94.485,68.403 L94.485,61.27 L95.974,61.27 L95.974,62.35 C96.319,61.902 96.652,61.574 96.965,61.368 C97.28,61.161 97.642,61.058 98.051,61.058 C98.583,61.058 99.003,61.176 99.304,61.412 C99.608,61.648 99.865,62.026 100.075,62.545 C100.446,62.026 100.806,61.648 101.153,61.412 C101.501,61.176 101.901,61.058 102.359,61.058 C102.92,61.058 103.405,61.27 103.811,61.695 C104.217,62.12 104.422,62.621 104.422,63.205 L104.422,68.403 L102.932,68.403 L102.932,63.577 C102.932,62.784 102.546,62.385 101.775,62.385 C101.334,62.385 100.963,62.589 100.657,62.993 C100.35,63.4 100.198,63.902 100.198,64.498 L100.198,68.403 L98.708,68.403 L98.708,63.79 C98.708,62.855 98.331,62.385 97.578,62.385 C97.131,62.385 96.751,62.577 96.442,62.958 C96.129,63.338 95.974,63.81 95.974,64.371 L95.974,68.403 L94.485,68.403 L94.485,68.403 Z M106.542,57.182 L108.031,57.182 L108.031,62.663 C108.665,61.592 109.571,61.058 110.751,61.058 C111.665,61.058 112.454,61.427 113.125,62.167 C113.795,62.905 114.13,63.781 114.13,64.798 C114.13,65.813 113.8,66.701 113.143,67.459 C112.483,68.217 111.715,68.598 110.838,68.598 C110.272,68.598 109.737,68.445 109.229,68.141 C108.721,67.837 108.324,67.421 108.031,66.899 L108.031,68.403 L106.542,68.403 L106.542,57.182 L106.542,57.182 Z M112.553,64.796 C112.553,64.144 112.322,63.583 111.858,63.12 C111.393,62.654 110.833,62.421 110.176,62.421 C109.539,62.421 108.987,62.657 108.523,63.129 C108.055,63.598 107.821,64.155 107.821,64.796 C107.821,65.468 108.055,66.031 108.523,66.492 C108.987,66.952 109.562,67.182 110.242,67.182 C110.874,67.182 111.414,66.949 111.87,66.48 C112.325,66.011 112.553,65.45 112.553,64.796 L112.553,64.796 Z M123.03,65.111 L117.001,65.111 C117.133,65.849 117.431,66.386 117.895,66.725 C118.362,67.064 118.868,67.235 119.417,67.235 C120.261,67.235 120.971,66.881 121.541,66.173 L122.627,67.002 C121.812,68.067 120.72,68.598 119.35,68.598 C118.298,68.598 117.422,68.235 116.712,67.506 C116.005,66.781 115.652,65.878 115.652,64.798 C115.652,63.787 116.011,62.913 116.727,62.17 C117.443,61.43 118.316,61.058 119.35,61.058 C120.366,61.058 121.237,61.433 121.961,62.185 C122.686,62.937 123.042,63.914 123.03,65.111 L123.03,65.111 Z M117.159,63.907 L121.488,63.907 C121.006,62.928 120.296,62.439 119.359,62.439 C118.333,62.439 117.6,62.928 117.159,63.907 L117.159,63.907 Z M126.395,61.27 L126.395,62.739 C126.725,62.146 127.049,61.719 127.364,61.453 C127.683,61.191 128.095,61.058 128.6,61.058 C128.743,61.058 128.948,61.093 129.216,61.161 L128.778,62.666 C128.492,62.61 128.302,62.58 128.212,62.58 C127.706,62.58 127.283,62.757 126.941,63.114 C126.599,63.468 126.43,63.911 126.43,64.444 L126.43,68.403 L124.94,68.403 L124.94,61.27 L126.395,61.27 L126.395,61.27 Z M135.014,64.807 C135.014,63.828 135.394,62.961 136.157,62.2 C136.919,61.439 137.795,61.058 138.783,61.058 C139.799,61.058 140.687,61.433 141.446,62.182 C142.206,62.931 142.585,63.804 142.585,64.807 C142.585,65.813 142.211,66.698 141.467,67.465 C140.722,68.232 139.863,68.616 138.885,68.616 C137.842,68.616 136.934,68.238 136.165,67.48 C135.397,66.722 135.014,65.831 135.014,64.807 L135.014,64.807 Z M141.148,64.81 C141.148,64.2 140.921,63.672 140.462,63.22 C140.006,62.769 139.463,62.545 138.835,62.545 C138.19,62.545 137.635,62.772 137.167,63.229 C136.703,63.686 136.469,64.229 136.469,64.863 C136.469,65.468 136.706,65.996 137.176,66.45 C137.646,66.902 138.201,67.129 138.835,67.129 C139.451,67.129 139.992,66.896 140.453,66.433 C140.918,65.967 141.148,65.427 141.148,64.81 L141.148,64.81 Z M148.439,57.27 L148.439,58.792 C148.003,58.509 147.63,58.368 147.317,58.368 C147.054,58.368 146.847,58.465 146.698,58.663 C146.549,58.857 146.476,59.132 146.476,59.483 L146.476,61.27 L148.439,61.27 L148.439,62.651 L146.476,62.651 L146.476,68.403 L144.986,68.403 L144.986,62.651 L143.689,62.651 L143.689,61.27 L144.986,61.27 L144.986,59.586 C144.986,58.775 145.194,58.126 145.608,57.642 C146.02,57.158 146.575,56.916 147.265,56.916 C147.609,56.916 147.998,57.034 148.439,57.27 L148.439,57.27 Z M162.173,58.612 L160.967,59.589 C160.648,59.256 160.359,59.008 160.099,58.843 C159.842,58.68 159.468,58.598 158.977,58.598 C158.443,58.598 158.011,58.719 157.678,58.964 C157.345,59.205 157.178,59.521 157.178,59.904 C157.178,60.235 157.324,60.53 157.613,60.784 C157.906,61.04 158.399,61.318 159.1,61.624 C159.798,61.928 160.344,62.211 160.733,62.471 C161.124,62.733 161.443,63.023 161.694,63.338 C161.945,63.657 162.129,63.99 162.252,64.341 C162.374,64.689 162.436,65.061 162.436,65.453 C162.436,66.368 162.105,67.147 161.448,67.79 C160.788,68.436 159.991,68.757 159.053,68.757 C158.142,68.757 157.336,68.507 156.635,68.002 C155.937,67.498 155.4,66.74 155.023,65.734 L156.512,65.306 C157.053,66.545 157.879,67.164 158.992,67.164 C159.532,67.164 159.982,67.002 160.338,66.678 C160.698,66.35 160.876,65.94 160.876,65.445 C160.876,65.147 160.783,64.849 160.596,64.551 C160.409,64.25 160.178,64.002 159.9,63.81 C159.623,63.616 159.182,63.389 158.574,63.132 C157.967,62.872 157.499,62.639 157.169,62.427 C156.839,62.217 156.556,61.969 156.313,61.678 C156.074,61.388 155.899,61.099 155.785,60.81 C155.674,60.524 155.618,60.214 155.618,59.887 C155.618,59.099 155.931,58.427 156.559,57.872 C157.187,57.318 157.949,57.04 158.843,57.04 C159.439,57.04 160.041,57.17 160.651,57.43 C161.259,57.689 161.767,58.081 162.173,58.612 L162.173,58.612 Z M165.818,61.27 L165.818,62.704 C166.528,61.607 167.439,61.058 168.546,61.058 C169.457,61.058 170.24,61.427 170.898,62.161 C171.555,62.899 171.882,63.775 171.882,64.798 C171.882,65.831 171.549,66.722 170.88,67.471 C170.214,68.223 169.428,68.598 168.52,68.598 C167.997,68.598 167.492,68.459 167.01,68.182 C166.531,67.908 166.131,67.506 165.818,66.981 L165.818,71.748 L164.328,71.748 L164.328,61.27 L165.818,61.27 L165.818,61.27 Z M170.34,64.798 C170.34,64.167 170.106,63.616 169.639,63.146 C169.171,62.674 168.619,62.439 167.985,62.439 C167.343,62.439 166.785,62.672 166.314,63.141 C165.844,63.61 165.608,64.161 165.608,64.798 C165.608,65.45 165.842,66.017 166.306,66.498 C166.77,66.979 167.319,67.218 167.953,67.218 C168.608,67.218 169.171,66.981 169.639,66.507 C170.106,66.031 170.34,65.462 170.34,64.798 L170.34,64.798 Z M180.852,65.111 L174.823,65.111 C174.954,65.849 175.252,66.386 175.717,66.725 C176.184,67.064 176.689,67.235 177.238,67.235 C178.082,67.235 178.792,66.881 179.362,66.173 L180.449,67.002 C179.633,68.067 178.541,68.598 177.171,68.598 C176.12,68.598 175.243,68.235 174.534,67.506 C173.827,66.781 173.473,65.878 173.473,64.798 C173.473,63.787 173.833,62.913 174.548,62.17 C175.264,61.43 176.137,61.058 177.171,61.058 C178.188,61.058 179.058,61.433 179.783,62.185 C180.507,62.937 180.863,63.914 180.852,65.111 L180.852,65.111 Z M174.981,63.907 L179.309,63.907 C178.827,62.928 178.117,62.439 177.18,62.439 C176.155,62.439 175.422,62.928 174.981,63.907 L174.981,63.907 Z M182.482,57.182 L183.971,57.182 L183.971,64.4 L186.86,61.27 L188.808,61.27 L185.767,64.565 L188.843,68.403 L186.991,68.403 L183.971,64.633 L183.971,68.403 L182.482,68.403 L182.482,57.182 L182.482,57.182 Z M190.718,59.217 L192.208,59.217 L192.208,61.27 L193.68,61.27 L193.68,62.669 L192.208,62.669 L192.208,68.403 L190.718,68.403 L190.718,62.669 L189.544,62.669 L189.544,61.27 L190.718,61.27 L190.718,59.217 L190.718,59.217 Z M196.642,61.27 L196.642,62.739 C196.972,62.146 197.296,61.719 197.611,61.453 C197.93,61.191 198.342,61.058 198.847,61.058 C198.99,61.058 199.195,61.093 199.463,61.161 L199.025,62.666 C198.739,62.61 198.549,62.58 198.458,62.58 C197.953,62.58 197.53,62.757 197.188,63.114 C196.846,63.468 196.677,63.911 196.677,64.444 L196.677,68.403 L195.187,68.403 L195.187,61.27 L196.642,61.27 L196.642,61.27 Z M201.023,57.394 L202.513,57.394 L202.513,61.607 L207.701,61.607 L207.701,57.394 L209.19,57.394 L209.19,68.403 L207.701,68.403 L207.701,63.111 L202.513,63.111 L202.513,68.403 L201.023,68.403 L201.023,57.394 L201.023,57.394 Z M211.013,64.807 C211.013,63.828 211.392,62.961 212.155,62.2 C212.917,61.439 213.793,61.058 214.781,61.058 C215.797,61.058 216.685,61.433 217.444,62.182 C218.204,62.931 218.584,63.804 218.584,64.807 C218.584,65.813 218.21,66.698 217.465,67.465 C216.72,68.232 215.861,68.616 214.883,68.616 C213.84,68.616 212.931,68.238 212.163,67.48 C211.395,66.722 211.013,65.831 211.013,64.807 L211.013,64.807 Z M217.146,64.81 C217.146,64.2 216.918,63.672 216.46,63.22 C216.005,62.769 215.461,62.545 214.833,62.545 C214.188,62.545 213.633,62.772 213.165,63.229 C212.701,63.686 212.467,64.229 212.467,64.863 C212.467,65.468 212.704,65.996 213.174,66.45 C213.644,66.902 214.199,67.129 214.833,67.129 C215.449,67.129 215.99,66.896 216.451,66.433 C216.916,65.967 217.146,65.427 217.146,64.81 L217.146,64.81 Z M220.651,59.217 L222.141,59.217 L222.141,61.27 L223.613,61.27 L223.613,62.669 L222.141,62.669 L222.141,68.403 L220.651,68.403 L220.651,62.669 L219.477,62.669 L219.477,61.27 L220.651,61.27 L220.651,59.217 L220.651,59.217 Z M231.973,65.111 L225.944,65.111 C226.076,65.849 226.373,66.386 226.838,66.725 C227.305,67.064 227.81,67.235 228.36,67.235 C229.203,67.235 229.913,66.881 230.483,66.173 L231.57,67.002 C230.755,68.067 229.662,68.598 228.293,68.598 C227.241,68.598 226.365,68.235 225.655,67.506 C224.948,66.781 224.595,65.878 224.595,64.798 C224.595,63.787 224.954,62.913 225.669,62.17 C226.385,61.43 227.259,61.058 228.293,61.058 C229.309,61.058 230.179,61.433 230.904,62.185 C231.628,62.937 231.985,63.914 231.973,65.111 L231.973,65.111 Z M226.102,63.907 L230.43,63.907 C229.949,62.928 229.239,62.439 228.301,62.439 C227.276,62.439 226.543,62.928 226.102,63.907 L226.102,63.907 Z M233.883,57.182 L235.373,57.182 L235.373,68.404 L233.883,68.404 L233.883,57.182 Z M248.221,59.147 L247.118,60.244 C246.002,59.147 244.711,58.598 243.241,58.598 C241.959,58.598 240.89,59.014 240.037,59.843 C239.184,60.671 238.758,61.707 238.758,62.952 C238.758,64.037 239.173,65.02 239.999,65.89 C240.826,66.763 241.968,67.2 243.422,67.2 C245.604,67.2 246.977,66.244 247.538,64.332 L244.576,64.332 L244.576,62.828 L249.238,62.828 C249.238,63.58 249.188,64.182 249.089,64.63 C248.987,65.079 248.782,65.572 248.467,66.111 C248.151,66.651 247.734,67.135 247.211,67.563 C246.688,67.99 246.13,68.297 245.531,68.483 C244.935,68.666 244.223,68.757 243.393,68.757 C241.509,68.757 240.005,68.161 238.884,66.967 C237.759,65.772 237.198,64.409 237.198,62.872 C237.198,61.256 237.774,59.881 238.922,58.745 C240.069,57.609 241.462,57.04 243.096,57.04 C244.068,57.04 244.953,57.188 245.756,57.486 C246.56,57.781 247.38,58.335 248.221,59.147 L248.221,59.147 Z M252.69,61.27 L252.69,62.739 C253.02,62.146 253.345,61.719 253.66,61.453 C253.979,61.191 254.39,61.058 254.896,61.058 C255.039,61.058 255.243,61.093 255.512,61.161 L255.074,62.666 C254.787,62.61 254.598,62.58 254.507,62.58 C254.002,62.58 253.578,62.757 253.237,63.114 C252.895,63.468 252.725,63.911 252.725,64.444 L252.725,68.403 L251.236,68.403 L251.236,61.27 L252.69,61.27 L252.69,61.27 Z M256.125,64.807 C256.125,63.828 256.505,62.961 257.267,62.2 C258.03,61.439 258.906,61.058 259.893,61.058 C260.91,61.058 261.798,61.433 262.557,62.182 C263.316,62.931 263.696,63.804 263.696,64.807 C263.696,65.813 263.323,66.698 262.578,67.465 C261.833,68.232 260.974,68.616 259.996,68.616 C258.953,68.616 258.044,68.238 257.276,67.48 C256.508,66.722 256.125,65.831 256.125,64.807 L256.125,64.807 Z M262.259,64.81 C262.259,64.2 262.031,63.672 261.573,63.22 C261.117,62.769 260.574,62.545 259.946,62.545 C259.3,62.545 258.746,62.772 258.278,63.229 C257.814,63.686 257.58,64.229 257.58,64.863 C257.58,65.468 257.816,65.996 258.287,66.45 C258.757,66.902 259.312,67.129 259.946,67.129 C260.562,67.129 261.103,66.896 261.564,66.433 C262.028,65.967 262.259,65.427 262.259,64.81 L262.259,64.81 Z M265.011,61.27 L266.5,61.27 L266.5,65.288 C266.5,66.527 267.038,67.147 268.116,67.147 C268.595,67.147 268.974,66.981 269.255,66.651 C269.532,66.318 269.672,65.863 269.672,65.288 L269.672,61.27 L271.162,61.27 L271.162,65.53 C271.162,66.424 270.873,67.158 270.295,67.734 C269.719,68.309 268.98,68.598 268.083,68.598 C267.166,68.598 266.427,68.309 265.861,67.734 C265.294,67.158 265.011,66.406 265.011,65.477 L265.011,61.27 L265.011,61.27 Z M274.649,61.27 L274.649,62.704 C275.359,61.607 276.271,61.058 277.378,61.058 C278.289,61.058 279.072,61.427 279.729,62.161 C280.386,62.899 280.714,63.775 280.714,64.798 C280.714,65.831 280.38,66.722 279.711,67.471 C279.045,68.223 278.26,68.598 277.351,68.598 C276.829,68.598 276.323,68.459 275.841,68.182 C275.362,67.908 274.962,67.506 274.649,66.981 L274.649,71.748 L273.16,71.748 L273.16,61.27 L274.649,61.27 L274.649,61.27 Z M279.171,64.798 C279.171,64.167 278.937,63.616 278.47,63.146 C278.003,62.674 277.451,62.439 276.817,62.439 C276.174,62.439 275.616,62.672 275.146,63.141 C274.676,63.61 274.439,64.161 274.439,64.798 C274.439,65.45 274.673,66.017 275.137,66.498 C275.602,66.979 276.151,67.218 276.785,67.218 C277.439,67.218 278.003,66.981 278.47,66.507 C278.937,66.031 279.171,65.462 279.171,64.798 L279.171,64.798 Z" id="Fill-5" sketch:type="MSShapeGroup"></path>
        </g>
    </g>
</svg>
