<svg xmlns="http://www.w3.org/2000/svg" xmlns:xlink="http://www.w3.org/1999/xlink" preserveAspectRatio="xMidYMid" width="31" height="24" viewBox="0 0 31 24">
  <defs>
    <style>
      .cls-1 {
        fill: #fff;
        fill-rule: evenodd;
      }
    </style>
  </defs>
  <path d="M29.000,14.000 L2.000,14.000 C0.895,14.000 -0.000,13.104 -0.000,12.000 C-0.000,10.895 0.895,10.000 2.000,10.000 L29.000,10.000 C30.105,10.000 31.000,10.895 31.000,12.000 C31.000,13.104 30.105,14.000 29.000,14.000 ZM29.000,4.000 L2.000,4.000 C0.895,4.000 -0.000,3.105 -0.000,2.000 C-0.000,0.895 0.895,-0.000 2.000,-0.000 L29.000,-0.000 C30.105,-0.000 31.000,0.895 31.000,2.000 C31.000,3.105 30.105,4.000 29.000,4.000 ZM2.000,20.000 L29.000,20.000 C30.105,20.000 31.000,20.895 31.000,22.000 C31.000,23.105 30.105,24.000 29.000,24.000 L2.000,24.000 C0.895,24.000 -0.000,23.105 -0.000,22.000 C-0.000,20.895 0.895,20.000 2.000,20.000 Z" class="cls-1"/>
</svg>
