<?xml version="1.0" encoding="UTF-8" standalone="no"?>
<svg width="11px" height="18px" viewBox="0 0 11 18" version="1.1" xmlns="http://www.w3.org/2000/svg" xmlns:xlink="http://www.w3.org/1999/xlink" xmlns:sketch="http://www.bohemiancoding.com/sketch/ns">
    <!-- Generator: Sketch 3.2.2 (9983) - http://www.bohemiancoding.com/sketch -->
    <title>ok</title>
    <desc>Created with Sketch.</desc>
    <defs></defs>
    <g id="Page-1" stroke="none" stroke-width="1" fill="none" fill-rule="evenodd" sketch:type="MSPage">
        <g id="Portrait-Retina" sketch:type="MSArtboardGroup" transform="translate(-508.000000, -1010.000000)" fill="#FFFFFF">
            <path d="M518.392544,1019.55714 C518.138698,1019.04286 517.461775,1018.61429 516.531006,1019.34286 C515.304083,1020.32857 513.273314,1020.32857 513.273314,1020.32857 C513.273314,1020.32857 511.284852,1020.32857 510.015621,1019.34286 C509.084852,1018.61429 508.407929,1019.04286 508.154083,1019.55714 C507.731006,1020.45714 508.196391,1020.88571 509.338698,1021.61429 C510.269468,1022.21429 511.581006,1022.47143 512.42716,1022.55714 L509.084852,1025.94286 C508.704083,1026.32857 508.704083,1027.01429 509.084852,1027.4 L509.211775,1027.52857 C509.423314,1027.74286 509.67716,1027.82857 509.931006,1027.82857 C510.184852,1027.82857 510.438698,1027.74286 510.650237,1027.52857 L513.273314,1024.87143 L515.896391,1027.52857 C516.27716,1027.91429 516.954083,1027.91429 517.334852,1027.52857 L517.461775,1027.4 C517.842544,1027.01429 517.842544,1026.32857 517.461775,1025.94286 L514.119468,1022.55714 C514.965621,1022.47143 516.234852,1022.25714 517.207929,1021.61429 C518.307929,1020.88571 518.815621,1020.45714 518.392544,1019.55714 L518.392544,1019.55714 Z M513.273314,1012.31429 C514.457929,1012.31429 515.431006,1013.3 515.431006,1014.5 C515.431006,1015.7 514.457929,1016.68571 513.273314,1016.68571 C512.088698,1016.68571 511.115621,1015.7 511.115621,1014.5 C511.115621,1013.3 512.088698,1012.31429 513.273314,1012.31429 L513.273314,1012.31429 Z M513.273314,1019 C515.72716,1019 517.715621,1016.98571 517.715621,1014.5 C517.715621,1012.01429 515.72716,1010 513.273314,1010 C510.819468,1010 508.831006,1012.01429 508.831006,1014.5 C508.831006,1016.98571 510.819468,1019 513.273314,1019 L513.273314,1019 Z" id="ok" sketch:type="MSShapeGroup"></path>
        </g>
    </g>
</svg>