<svg xmlns="http://www.w3.org/2000/svg" xmlns:xlink="http://www.w3.org/1999/xlink" preserveAspectRatio="xMidYMid" width="81.031" height="68.031" viewBox="0 0 81.031 68.031">
  <defs>
    <style>
      .cls-1 {
        fill: #fff;
        fill-rule: evenodd;
      }
    </style>
  </defs>
  <path d="M79.594,34.459 C78.704,37.058 77.424,39.529 75.740,41.751 C74.724,43.091 73.569,44.344 72.282,45.485 C72.215,45.544 72.139,45.594 72.072,45.653 C71.489,46.159 70.888,46.650 70.252,47.109 C69.542,47.621 68.799,48.103 68.024,48.550 C65.786,49.843 63.433,50.752 61.041,51.322 C61.659,52.768 62.003,54.360 62.003,56.032 C62.003,62.656 56.633,68.026 50.008,68.026 L12.005,68.026 C5.381,68.026 0.011,62.656 0.011,56.032 C0.011,52.437 1.601,49.220 4.106,47.021 C4.038,46.367 4.001,45.704 4.001,45.033 C4.001,34.540 12.507,26.034 23.000,26.034 C25.127,26.034 27.166,26.399 29.076,27.044 C28.709,17.709 33.374,8.495 42.024,3.499 C42.772,3.067 43.533,2.682 44.303,2.332 C44.912,2.057 45.530,1.824 46.149,1.600 C46.298,1.546 46.445,1.478 46.595,1.426 C48.137,0.901 49.707,0.528 51.285,0.299 C54.037,-0.100 56.809,-0.062 59.504,0.411 C51.918,6.477 49.673,17.319 54.678,25.988 C59.748,34.770 70.471,38.228 79.594,34.459 ZM23.000,32.032 C15.821,32.032 10.002,37.851 10.002,45.030 C10.002,46.844 10.376,48.570 11.047,50.138 C8.192,50.599 6.005,53.056 6.005,56.041 C6.005,59.355 8.692,62.041 12.005,62.041 L50.016,62.041 C53.330,62.041 56.016,59.355 56.016,56.041 C56.016,52.728 53.330,50.042 50.016,50.042 L47.594,50.042 C47.888,49.099 48.047,48.097 48.047,47.057 C48.047,41.532 43.567,37.052 38.041,37.052 C36.561,37.052 35.161,37.382 33.897,37.959 C31.579,34.394 27.568,32.032 23.000,32.032 ZM49.484,29.030 C45.557,22.226 45.074,14.391 47.457,7.508 C46.631,7.847 45.813,8.223 45.018,8.682 C37.089,13.259 33.518,22.444 35.666,30.901 C35.779,31.002 35.892,31.102 36.003,31.206 C36.672,31.117 37.349,31.053 38.042,31.053 C46.078,31.053 52.711,36.981 53.854,44.699 C54.763,45.010 55.634,45.406 56.431,45.913 C59.362,45.707 62.292,44.872 65.008,43.305 C65.878,42.802 66.677,42.227 67.441,41.621 C60.158,40.318 53.473,35.942 49.484,29.030 Z" class="cls-1"/>
</svg>
