<svg xmlns="http://www.w3.org/2000/svg" xmlns:xlink="http://www.w3.org/1999/xlink" preserveAspectRatio="xMidYMid" width="80" height="68" viewBox="0 0 80 68">
  <defs>
    <style>
      .cls-1 {
        fill: #fff;
        fill-rule: evenodd;
      }
    </style>
  </defs>
  <path d="M78.000,38.000 L72.000,38.000 C70.895,38.000 70.000,37.104 70.000,36.000 L70.000,34.000 C70.000,32.895 70.895,32.000 72.000,32.000 L78.000,32.000 C79.105,32.000 80.000,32.895 80.000,34.000 L80.000,36.000 C80.000,37.104 79.105,38.000 78.000,38.000 ZM66.213,18.029 C65.432,18.810 64.166,18.810 63.385,18.029 L61.971,16.615 C61.189,15.834 61.189,14.568 61.971,13.787 L66.213,9.544 C66.994,8.763 68.261,8.763 69.042,9.544 L70.456,10.958 C71.237,11.739 71.237,13.006 70.456,13.787 L66.213,18.029 ZM58.878,47.947 C60.813,50.077 62.003,52.896 62.003,56.001 C62.003,62.625 56.633,67.995 50.008,67.995 L12.005,67.995 C5.381,67.995 0.011,62.625 0.011,56.001 C0.011,52.406 1.601,49.189 4.106,46.990 C4.038,46.336 4.001,45.673 4.001,45.001 C4.001,34.509 12.507,26.003 23.000,26.003 C24.713,26.003 26.365,26.250 27.944,26.675 C31.032,20.362 37.499,16.003 45.001,16.003 C55.493,16.003 63.999,24.508 63.999,35.001 C63.999,40.010 62.046,44.552 58.878,47.947 ZM23.000,32.001 C15.821,32.001 10.002,37.820 10.002,44.999 C10.002,46.813 10.376,48.539 11.047,50.107 C8.192,50.569 6.005,53.025 6.005,56.010 C6.005,59.324 8.692,62.010 12.005,62.010 L50.016,62.010 C53.330,62.010 56.016,59.324 56.016,56.010 C56.016,52.697 53.330,50.011 50.016,50.011 L47.594,50.011 C47.888,49.068 48.047,48.066 48.047,47.026 C48.047,41.501 43.567,37.021 38.041,37.021 C36.561,37.021 35.161,37.351 33.897,37.928 C31.579,34.363 27.568,32.001 23.000,32.001 ZM45.000,22.001 C39.938,22.001 35.563,24.900 33.419,29.124 C34.340,29.730 35.198,30.419 35.999,31.172 C36.669,31.083 37.347,31.022 38.042,31.022 C46.023,31.022 52.620,36.869 53.830,44.510 C56.385,42.137 57.998,38.762 57.998,35.000 C57.998,27.821 52.179,22.001 45.000,22.001 ZM46.000,10.000 L44.000,10.000 C42.895,10.000 42.000,9.105 42.000,8.000 L42.000,2.000 C42.000,0.895 42.895,0.000 44.000,0.000 L46.000,0.000 C47.105,0.000 48.000,0.895 48.000,2.000 L48.000,8.000 C48.000,9.105 47.105,10.000 46.000,10.000 ZM26.615,18.029 C25.834,18.810 24.568,18.811 23.787,18.029 L19.544,13.787 C18.763,13.006 18.763,11.739 19.544,10.958 L20.958,9.544 C21.739,8.763 23.006,8.763 23.787,9.544 L28.029,13.787 C28.811,14.568 28.810,15.834 28.029,16.615 L26.615,18.029 Z" class="cls-1"/>
</svg>
