<svg xmlns="http://www.w3.org/2000/svg" xmlns:xlink="http://www.w3.org/1999/xlink" preserveAspectRatio="xMidYMid" width="79.969" height="63.969" viewBox="0 0 79.969 63.969">
  <defs>
    <style>
      .cls-1 {
        fill: #fff;
        fill-rule: evenodd;
      }
    </style>
  </defs>
  <path d="M79.954,39.970 C79.954,48.803 72.794,55.963 63.961,55.963 L55.296,55.963 C53.602,55.949 53.527,55.067 54.008,53.936 C54.372,53.080 54.738,52.214 55.101,51.355 C55.484,50.571 56.033,49.971 57.713,49.971 C57.742,49.971 57.759,49.966 57.786,49.965 L63.945,49.965 C69.459,49.965 73.928,45.496 73.928,39.982 C73.928,34.942 70.190,30.786 65.337,30.107 C65.743,28.798 65.963,27.406 65.963,25.962 C65.963,18.243 59.705,11.986 51.986,11.986 C49.055,11.986 46.337,12.892 44.090,14.434 C41.392,9.419 36.097,6.009 30.003,6.009 C21.172,6.009 14.013,13.167 14.013,21.998 C14.013,24.917 14.808,27.644 16.174,29.999 L15.984,29.999 C10.471,29.999 6.001,34.469 6.001,39.982 C6.001,45.496 10.471,49.965 15.984,49.965 L18.610,49.965 C18.623,49.966 18.628,49.970 18.642,49.970 C19.985,49.970 21.484,50.751 20.641,51.937 C20.619,51.967 20.617,51.989 20.603,52.017 C19.999,52.884 19.428,53.709 18.906,54.467 C18.880,54.500 18.856,54.522 18.829,54.560 C18.188,55.482 17.583,55.873 16.830,55.963 L16.060,55.963 C15.850,55.943 15.632,55.915 15.395,55.872 C15.206,55.837 15.071,55.861 14.968,55.911 C6.618,55.377 0.007,48.454 0.007,39.970 C0.007,33.899 3.389,28.619 8.372,25.910 C8.139,24.628 7.999,23.314 7.999,21.966 C7.999,9.830 17.837,-0.008 29.973,-0.008 C36.278,-0.008 41.946,2.661 45.953,6.913 C47.852,6.315 49.873,5.988 51.970,5.988 C63.011,5.988 71.961,14.938 71.961,25.979 C71.961,26.030 71.954,26.080 71.953,26.131 C76.731,28.897 79.954,34.052 79.954,39.970 ZM34.256,40.991 C34.807,40.037 36.026,39.710 36.980,40.261 C37.934,40.812 38.261,42.031 37.710,42.986 C37.160,43.940 30.568,60.059 29.466,61.967 C28.365,63.875 25.925,64.529 24.017,63.427 C22.109,62.326 21.456,59.886 22.557,57.978 C23.659,56.070 33.705,41.945 34.256,40.991 ZM48.234,40.991 C48.785,40.037 50.005,39.710 50.959,40.261 C51.912,40.812 52.239,42.031 51.689,42.986 C51.138,43.940 44.546,60.059 43.444,61.967 C42.343,63.875 39.903,64.529 37.995,63.427 C36.087,62.326 35.434,59.886 36.535,57.978 C37.637,56.070 47.683,41.945 48.234,40.991 Z" class="cls-1"/>
</svg>
