<?xml version="1.0" encoding="UTF-8" standalone="no"?>
<svg width="13px" height="13px" viewBox="0 0 13 13" version="1.1" xmlns="http://www.w3.org/2000/svg" xmlns:xlink="http://www.w3.org/1999/xlink" xmlns:sketch="http://www.bohemiancoding.com/sketch/ns">
    <!-- Generator: Sketch 3.3.3 (12072) - http://www.bohemiancoding.com/sketch -->
    <title>search</title>
    <desc>Created with Sketch.</desc>
    <defs></defs>
    <g id="Page-1" stroke="none" stroke-width="1" fill="none" fill-rule="evenodd" sketch:type="MSPage">
        <path d="M12.8649351,10.8963636 L10.0015584,7.99584416 C10.4675325,7.18207792 10.7106494,6.27714286 10.7106494,5.36545455 C10.7106494,2.40753247 8.30649351,0 5.35532468,0 C2.40415584,0 0,2.40753247 0,5.36545455 C0,8.32337662 2.40415584,10.7309091 5.35532468,10.7309091 C6.2974026,10.7309091 7.22935065,10.4709091 8.06,9.97454545 L10.9098701,12.8649351 C10.974026,12.9290909 11.0651948,12.9696104 11.1563636,12.9696104 C11.2475325,12.9696104 11.3387013,12.9324675 11.4028571,12.8649351 L12.8649351,11.385974 C13,11.2475325 13,11.0314286 12.8649351,10.8963636 L12.8649351,10.8963636 Z M5.35532468,2.09012987 C7.15844156,2.09012987 8.6238961,3.55896104 8.6238961,5.36545455 C8.6238961,7.17194805 7.15844156,8.64077922 5.35532468,8.64077922 C3.55220779,8.64077922 2.08675325,7.17194805 2.08675325,5.36545455 C2.08675325,3.55896104 3.55220779,2.09012987 5.35532468,2.09012987 L5.35532468,2.09012987 Z" id="search" fill="#000000" sketch:type="MSShapeGroup"></path>
    </g>
</svg>