<svg xmlns="http://www.w3.org/2000/svg" xmlns:xlink="http://www.w3.org/1999/xlink" preserveAspectRatio="xMidYMid" width="79.969" height="63.969" viewBox="0 0 79.969 63.969">
  <defs>
    <style>
      .cls-1 {
        fill: #fff;
        fill-rule: evenodd;
      }
    </style>
  </defs>
  <path d="M79.954,39.970 C79.954,48.803 72.794,55.963 63.961,55.963 L63.311,55.963 C62.574,55.773 62.003,54.527 62.003,53.001 C62.003,51.344 62.674,50.001 63.503,50.001 C63.538,50.001 63.576,49.986 63.614,49.965 L63.946,49.965 C69.459,49.965 73.928,45.495 73.928,39.982 C73.928,34.942 70.190,30.786 65.337,30.107 C65.743,28.798 65.963,27.406 65.963,25.962 C65.963,18.243 59.705,11.986 51.986,11.986 C49.055,11.986 46.337,12.892 44.090,14.434 C41.392,9.419 36.097,6.009 30.003,6.009 C21.172,6.009 14.013,13.167 14.013,21.998 C14.013,24.917 14.808,27.644 16.174,29.999 L15.984,29.999 C10.471,29.999 6.001,34.469 6.001,39.982 C6.001,45.495 10.471,49.965 15.984,49.965 L16.610,49.965 C16.623,49.966 16.628,49.970 16.642,49.970 C17.985,49.970 19.484,50.751 18.641,51.937 C18.619,51.967 18.617,51.989 18.603,52.016 C17.999,52.884 17.428,53.709 16.906,54.467 C16.880,54.500 16.856,54.521 16.829,54.560 C16.265,55.372 15.726,55.765 15.092,55.912 C6.685,55.438 0.007,48.496 0.007,39.970 C0.007,33.899 3.389,28.619 8.372,25.910 C8.139,24.628 7.999,23.314 7.999,21.966 C7.999,9.830 17.837,-0.008 29.973,-0.008 C36.278,-0.008 41.946,2.661 45.953,6.913 C47.852,6.315 49.873,5.988 51.970,5.988 C63.011,5.988 71.961,14.938 71.961,25.979 C71.961,26.030 71.954,26.080 71.953,26.131 C76.731,28.897 79.954,34.052 79.954,39.970 ZM31.256,40.991 C31.807,40.037 33.026,39.710 33.980,40.261 C34.934,40.812 35.261,42.031 34.710,42.986 C34.160,43.939 27.568,60.059 26.466,61.967 C25.365,63.875 22.925,64.529 21.017,63.427 C19.109,62.326 18.456,59.886 19.557,57.978 C20.659,56.070 30.705,41.945 31.256,40.991 ZM37.671,54.061 C38.502,53.581 42.692,51.999 45.330,50.986 C42.690,49.971 38.504,48.389 37.673,47.909 C36.477,47.219 36.067,45.690 36.757,44.494 C37.448,43.298 38.977,42.889 40.173,43.579 C41.004,44.059 44.473,46.900 46.671,48.680 C46.230,45.890 45.507,41.468 45.507,40.507 C45.507,39.126 46.626,38.007 48.007,38.007 C49.387,38.007 50.507,39.126 50.507,40.507 C50.507,41.468 49.781,45.893 49.338,48.686 C51.537,46.907 55.007,44.067 55.839,43.587 C57.034,42.897 58.563,43.306 59.254,44.502 C59.944,45.698 59.534,47.227 58.339,47.917 C57.506,48.398 53.303,49.985 50.665,50.997 C53.305,52.012 57.496,53.596 58.327,54.076 C59.523,54.766 59.933,56.295 59.242,57.491 C58.552,58.687 57.023,59.096 55.827,58.406 C54.996,57.926 51.527,55.085 49.329,53.305 C49.770,56.095 50.493,60.517 50.493,61.478 C50.493,62.859 49.374,63.978 47.993,63.978 C46.613,63.978 45.493,62.859 45.493,61.478 C45.493,60.517 46.219,56.093 46.661,53.300 C44.463,55.079 41.001,57.912 40.171,58.391 C38.975,59.081 37.446,58.672 36.756,57.476 C36.065,56.280 36.475,54.751 37.671,54.061 Z" class="cls-1"/>
</svg>
