<svg xmlns="http://www.w3.org/2000/svg" xmlns:xlink="http://www.w3.org/1999/xlink" preserveAspectRatio="xMidYMid" width="79.969" height="63.969" viewBox="0 0 79.969 63.969">
  <defs>
    <style>
      .cls-1 {
        fill: #fff;
        fill-rule: evenodd;
      }
    </style>
  </defs>
  <path d="M79.954,39.993 C79.954,48.826 72.794,55.986 63.961,55.986 L57.427,55.986 C56.635,55.906 56.003,54.607 56.003,53.001 C56.003,51.345 56.674,50.001 57.503,50.001 C57.522,50.001 57.542,49.995 57.562,49.988 L63.945,49.988 C69.459,49.988 73.929,45.519 73.929,40.006 C73.929,34.966 70.190,30.810 65.337,30.131 C65.743,28.821 65.963,27.429 65.963,25.986 C65.963,18.267 59.705,12.009 51.986,12.009 C49.055,12.009 46.337,12.915 44.090,14.458 C41.392,9.443 36.097,6.032 30.003,6.032 C21.172,6.032 14.013,13.191 14.013,22.021 C14.013,24.940 14.808,27.668 16.174,30.023 L15.984,30.023 C10.471,30.023 6.001,34.492 6.001,40.006 C6.001,45.519 10.471,49.988 15.984,49.988 L22.443,49.988 C22.463,49.995 22.483,50.001 22.503,50.001 C23.331,50.001 24.003,51.345 24.003,53.001 C24.003,54.607 23.371,55.906 22.578,55.986 L16.000,55.986 C7.167,55.986 0.007,48.826 0.007,39.993 C0.007,33.923 3.389,28.642 8.372,25.933 C8.139,24.652 7.999,23.338 7.999,21.989 C7.999,9.853 17.837,0.015 29.973,0.015 C36.278,0.015 41.946,2.685 45.953,6.937 C47.852,6.338 49.873,6.012 51.970,6.012 C63.011,6.012 71.961,14.962 71.961,26.002 C71.961,26.054 71.954,26.103 71.953,26.155 C76.731,28.920 79.954,34.075 79.954,39.993 ZM29.671,54.061 C30.502,53.581 34.692,51.999 37.330,50.986 C34.690,49.971 30.504,48.389 29.673,47.909 C28.477,47.219 28.067,45.690 28.758,44.494 C29.448,43.298 30.977,42.889 32.173,43.579 C33.004,44.059 36.473,46.900 38.671,48.680 C38.230,45.890 37.507,41.468 37.507,40.507 C37.507,39.126 38.626,38.007 40.007,38.007 C41.387,38.007 42.507,39.126 42.507,40.507 C42.507,41.467 41.781,45.893 41.338,48.686 C43.537,46.907 47.007,44.067 47.839,43.587 C49.034,42.896 50.563,43.306 51.254,44.502 C51.944,45.698 51.534,47.227 50.339,47.917 C49.506,48.398 45.303,49.985 42.665,50.997 C45.305,52.012 49.496,53.596 50.327,54.076 C51.523,54.766 51.933,56.295 51.242,57.491 C50.552,58.687 49.023,59.096 47.827,58.406 C46.996,57.926 43.527,55.085 41.329,53.305 C41.770,56.095 42.493,60.517 42.493,61.478 C42.493,62.859 41.374,63.978 39.993,63.978 C38.613,63.978 37.493,62.859 37.493,61.478 C37.493,60.517 38.219,56.093 38.661,53.300 C36.463,55.079 33.001,57.912 32.171,58.391 C30.975,59.081 29.446,58.672 28.756,57.476 C28.065,56.280 28.475,54.751 29.671,54.061 Z" class="cls-1"/>
</svg>
