<svg xmlns="http://www.w3.org/2000/svg" xmlns:xlink="http://www.w3.org/1999/xlink" preserveAspectRatio="xMidYMid" width="79.969" height="64" viewBox="0 0 79.969 64">
  <defs>
    <style>
      .cls-1 {
        fill: #fff;
        fill-rule: evenodd;
      }
    </style>
  </defs>
  <path d="M79.954,39.993 C79.954,48.826 72.794,55.986 63.961,55.986 L55.540,55.986 C55.527,55.984 55.515,55.978 55.503,55.978 C54.674,55.978 54.003,54.635 54.003,52.978 C54.003,51.357 54.646,50.045 55.450,49.988 L63.945,49.988 C69.459,49.988 73.928,45.519 73.928,40.006 C73.928,34.966 70.190,30.810 65.337,30.131 C65.743,28.821 65.963,27.429 65.963,25.986 C65.963,18.267 59.705,12.009 51.986,12.009 C49.055,12.009 46.337,12.915 44.090,14.458 C41.392,9.443 36.097,6.032 30.003,6.032 C21.172,6.032 14.013,13.191 14.013,22.021 C14.013,24.940 14.808,27.668 16.174,30.023 L15.984,30.023 C10.471,30.023 6.001,34.492 6.001,40.006 C6.001,45.519 10.471,49.988 15.984,49.988 L24.556,49.988 C25.359,50.045 26.003,51.357 26.003,52.978 C26.003,54.635 25.331,55.978 24.503,55.978 C24.491,55.978 24.474,55.984 24.460,55.986 L16.000,55.986 C7.167,55.986 0.007,48.826 0.007,39.993 C0.007,33.923 3.389,28.642 8.372,25.933 C8.139,24.652 7.999,23.338 7.999,21.989 C7.999,9.853 17.837,0.015 29.973,0.015 C36.278,0.015 41.946,2.685 45.953,6.937 C47.852,6.338 49.873,6.012 51.970,6.012 C63.011,6.012 71.961,14.962 71.961,26.002 C71.961,26.054 71.954,26.103 71.953,26.155 C76.731,28.921 79.954,34.075 79.954,39.993 ZM30.194,50.453 L41.800,36.429 L41.833,36.437 C42.039,36.165 42.378,35.975 42.783,35.975 C43.418,35.975 43.932,36.418 43.937,36.963 L43.969,36.971 L42.072,46.581 C42.012,46.701 41.978,46.833 41.978,46.972 C41.978,47.522 42.496,47.968 43.134,47.968 C43.154,47.968 43.171,47.959 43.191,47.958 L43.217,47.979 L48.842,47.979 C48.863,47.978 48.880,47.968 48.901,47.968 C49.540,47.968 50.057,48.414 50.057,48.965 C50.057,49.197 49.951,49.400 49.797,49.570 L49.818,49.608 L38.060,63.541 L38.046,63.538 C37.839,63.809 37.500,63.999 37.096,63.999 C36.458,63.999 35.940,63.553 35.940,63.003 C35.940,62.992 35.947,62.984 35.947,62.974 L35.926,62.968 L37.911,53.250 C37.947,53.154 37.981,53.057 37.981,52.951 C37.981,52.401 37.464,51.955 36.825,51.955 C36.809,51.955 36.795,51.963 36.778,51.963 L36.776,51.961 L31.317,51.932 C31.271,51.936 31.231,51.955 31.183,51.955 C30.545,51.955 30.027,51.509 30.027,50.958 C30.027,50.774 30.101,50.611 30.202,50.463 L30.194,50.453 Z" class="cls-1"/>
</svg>
