<?xml version="1.0" encoding="UTF-8" standalone="no"?>
<svg width="19px" height="16px" viewBox="0 0 19 16" version="1.1" xmlns="http://www.w3.org/2000/svg" xmlns:xlink="http://www.w3.org/1999/xlink" xmlns:sketch="http://www.bohemiancoding.com/sketch/ns">
    <!-- Generator: Sketch 3.2.2 (9983) - http://www.bohemiancoding.com/sketch -->
    <title>tw</title>
    <desc>Created with Sketch.</desc>
    <defs></defs>
    <g id="Page-1" stroke="none" stroke-width="1" fill="none" fill-rule="evenodd" sketch:type="MSPage">
        <g id="Portrait-Retina" sketch:type="MSArtboardGroup" transform="translate(-694.000000, -1011.000000)" fill="#FFFFFF">
            <path d="M710.497561,1013.44706 C711.285366,1012.97647 711.887805,1012.22353 712.165854,1011.28235 C711.42439,1011.70588 710.590244,1012.03529 709.756098,1012.22353 C709.060976,1011.47059 708.041463,1011 706.97561,1011 C704.843902,1011 703.129268,1012.74118 703.129268,1014.90588 C703.129268,1015.18824 703.17561,1015.51765 703.221951,1015.8 C700.02439,1015.65882 697.243902,1014.10588 695.343902,1011.75294 C695.019512,1012.31765 694.834146,1012.97647 694.834146,1013.72941 C694.834146,1015.09412 695.529268,1016.27059 696.54878,1016.97647 C695.9,1016.97647 695.343902,1016.78824 694.834146,1016.50588 L694.834146,1016.55294 C694.834146,1018.43529 696.131707,1019.98824 697.892683,1020.36471 C697.568293,1020.45882 697.243902,1020.50588 696.873171,1020.50588 C696.641463,1020.50588 696.409756,1020.45882 696.131707,1020.45882 C696.641463,1022.01176 698.031707,1023.14118 699.7,1023.14118 C698.402439,1024.17647 696.734146,1024.78824 694.926829,1024.78824 C694.602439,1024.78824 694.32439,1024.78824 694,1024.74118 C695.714634,1025.82353 697.707317,1026.48235 699.885366,1026.48235 C706.929268,1026.48235 710.77561,1020.55294 710.77561,1015.42353 L710.77561,1014.90588 C711.517073,1014.29412 712.165854,1013.58824 712.67561,1012.83529 C711.980488,1013.16471 711.239024,1013.35294 710.497561,1013.44706" id="tw" sketch:type="MSShapeGroup"></path>
        </g>
    </g>
</svg>