<?xml version="1.0" encoding="UTF-8" standalone="no"?>
<svg width="13px" height="17px" viewBox="0 0 13 17" version="1.1" xmlns="http://www.w3.org/2000/svg" xmlns:xlink="http://www.w3.org/1999/xlink" xmlns:sketch="http://www.bohemiancoding.com/sketch/ns">
    <!-- Generator: Sketch 3.2.2 (9983) - http://www.bohemiancoding.com/sketch -->
    <title>vk</title>
    <desc>Created with Sketch.</desc>
    <defs></defs>
    <g id="Page-1" stroke="none" stroke-width="1" fill="none" fill-rule="evenodd" sketch:type="MSPage">
        <g id="Portrait-Retina" sketch:type="MSArtboardGroup" transform="translate(-722.000000, -1011.000000)" fill="#FFFFFF">
            <path d="M722,1011 L729.234783,1011 C731.608696,1011 733.643478,1012.22224 733.643478,1014.60869 C733.643478,1016.64576 732.908696,1017.40255 731.495652,1018.33345 C731.608696,1018.4501 732.456522,1018.68283 732.73913,1018.85752 C733.191304,1019.09024 733.473913,1019.32297 733.756522,1019.61431 C734.604348,1020.48717 734.717391,1021.302 734.717391,1022.64031 C734.717391,1025.78355 731.778261,1027.41321 728.895652,1027.41321 L722,1027.41321 L722,1011 L722,1011 Z M725.956522,1015.30686 L725.956522,1017.46059 C727.821739,1017.46059 729.573913,1017.69331 729.573913,1015.65624 C729.573913,1013.73583 727.595652,1014.02659 725.956522,1014.02659 L725.956522,1015.30686 L725.956522,1015.30686 Z M725.956522,1024.328 C727.991304,1024.328 730.534783,1024.67738 730.534783,1022.29093 C730.591304,1019.78841 727.934783,1020.25386 725.956522,1020.25386 L725.956522,1024.328 L725.956522,1024.328 Z" id="vk" sketch:type="MSShapeGroup"></path>
        </g>
    </g>
</svg>