<svg xmlns="http://www.w3.org/2000/svg" xmlns:xlink="http://www.w3.org/1999/xlink" preserveAspectRatio="xMidYMid" width="80" height="56" viewBox="0 0 80 56">
  <defs>
    <style>
      .cls-1 {
        fill: #fff;
        fill-rule: evenodd;
      }
    </style>
  </defs>
  <path d="M68.000,56.000 C62.233,56.000 57.421,51.931 56.267,46.508 L56.271,46.508 C56.227,46.343 56.196,46.174 56.196,45.996 C56.196,44.892 57.092,43.996 58.196,43.996 L60.259,43.996 C61.203,43.996 61.990,44.653 62.200,45.533 L62.221,45.530 C62.901,48.098 65.218,50.000 68.000,50.000 C71.314,50.000 74.000,47.314 74.000,44.000 C74.000,40.824 71.525,38.252 68.403,38.041 C68.273,38.014 68.138,38.000 68.000,38.000 L57.618,38.000 L10.000,38.000 L2.000,38.000 C0.895,38.000 0.000,37.105 0.000,36.000 L0.000,34.000 C0.000,32.896 0.895,32.000 2.000,32.000 L68.000,32.000 C68.000,32.000 68.000,32.000 68.000,32.000 C74.627,32.000 80.000,37.373 80.000,44.000 C80.000,50.627 74.627,56.000 68.000,56.000 ZM56.000,24.000 C56.000,24.000 56.000,24.000 56.000,24.000 L2.000,24.000 C0.895,24.000 0.000,23.105 0.000,22.000 L0.000,20.000 C0.000,18.895 0.895,18.000 2.000,18.000 L10.000,18.000 L45.619,18.000 L56.000,18.000 C56.138,18.000 56.273,17.986 56.403,17.959 C59.525,17.748 62.000,15.176 62.000,12.000 C62.000,8.686 59.314,6.000 56.000,6.000 C53.218,6.000 50.901,7.902 50.221,10.470 L50.200,10.466 C49.990,11.347 49.203,12.004 48.259,12.004 L46.196,12.004 C45.092,12.004 44.196,11.108 44.196,10.004 C44.196,9.826 44.227,9.656 44.271,9.492 L44.267,9.492 C45.421,4.069 50.233,0.000 56.000,0.000 C62.627,0.000 68.000,5.373 68.000,12.000 C68.000,18.627 62.627,24.000 56.000,24.000 Z" class="cls-1"/>
</svg>
